<svg aria-hidden="true" style="position: absolute; width: 0; height: 0; overflow: hidden;" version="1.1" xmlns="http://www.w3.org/2000/svg" xmlns:xlink="http://www.w3.org/1999/xlink">
<defs>
<symbol id="water-icon" viewBox="0 0 32 32">
<path stroke-linejoin="miter" stroke-linecap="butt" stroke-miterlimit="10" stroke-width="2" d="M25 20c0 5.523-3.477 9-9 9s-9-3.477-9-9c0-5.927 6.452-13.928 8.431-16.242 0.070-0.082 0.158-0.148 0.256-0.194s0.205-0.069 0.314-0.069c0.108 0 0.215 0.023 0.314 0.069s0.186 0.111 0.256 0.194c1.978 2.314 8.43 10.316 8.43 16.242z"></path>
<path stroke-linejoin="round" stroke-linecap="round" stroke-miterlimit="4" stroke-width="2" d="M21.5 20.5c0 1.194-0.474 2.338-1.318 3.182s-1.988 1.318-3.182 1.318"></path>
</symbol>
<symbol id="gas-icon" viewBox="0 0 32 32">
<path stroke-linejoin="round" stroke-linecap="round" stroke-miterlimit="4" stroke-width="2.4" d="M8 25.333h5.333M24 25.345v-0.012M2.667 8c0-4.413 0.92-5.333 5.333-5.333h16c4.413 0 5.333 0.92 5.333 5.333v16c0 4.413-0.92 5.333-5.333 5.333h-16c-4.413 0-5.333-0.92-5.333-5.333v-16z"></path>
<path stroke-linejoin="round" stroke-linecap="round" stroke-miterlimit="4" stroke-width="2.4" d="M16 18.667c2.945 0 5.333-2.388 5.333-5.333s-2.388-5.333-5.333-5.333-5.333 2.388-5.333 5.333c0 2.946 2.388 5.333 5.333 5.333z"></path>
<path stroke-linejoin="round" stroke-linecap="round" stroke-miterlimit="4" stroke-width="2.4" d="M20.667 13.333h2M16 18v2M11.333 13.333h-2M16 8.667v-2"></path>
</symbol>
<symbol id="microwave-icon" viewBox="0 0 32 32">
<path stroke-linejoin="round" stroke-linecap="round" stroke-miterlimit="4" stroke-width="2" d="M26.667 5.333h-21.333c-1.473 0-2.667 1.194-2.667 2.667v14.667c0 1.473 1.194 2.667 2.667 2.667h21.333c1.473 0 2.667-1.194 2.667-2.667v-14.667c0-1.473-1.194-2.667-2.667-2.667z"></path>
<path stroke-linejoin="round" stroke-linecap="round" stroke-miterlimit="4" stroke-width="2" d="M17.333 10.667h-8c-0.736 0-1.333 0.597-1.333 1.333v6.667c0 0.736 0.597 1.333 1.333 1.333h8c0.736 0 1.333-0.597 1.333-1.333v-6.667c0-0.736-0.597-1.333-1.333-1.333z"></path>
<path stroke-linejoin="round" stroke-linecap="round" stroke-miterlimit="4" stroke-width="2" d="M24 10.667v9.333M8 25.333v2.667M24 25.333v2.667"></path>
</symbol>
<symbol id="refrigerator-icon" viewBox="0 0 32 32">
<path d="M23.667 9.333c0-0.265-0.105-0.52-0.293-0.707s-0.442-0.293-0.707-0.293c-0.265 0-0.52 0.105-0.707 0.293s-0.293 0.442-0.293 0.707v2.667c0 0.265 0.105 0.52 0.293 0.707s0.442 0.293 0.707 0.293c0.265 0 0.52-0.105 0.707-0.293s0.293-0.442 0.293-0.707v-2.667zM23.667 18.667c0-0.265-0.105-0.52-0.293-0.707s-0.442-0.293-0.707-0.293c-0.265 0-0.52 0.105-0.707 0.293s-0.293 0.442-0.293 0.707v2.667c0 0.265 0.105 0.52 0.293 0.707s0.442 0.293 0.707 0.293c0.265 0 0.52-0.105 0.707-0.293s0.293-0.442 0.293-0.707v-2.667z"></path>
<path d="M16.075 1.667h-0.149c-2.451 0-4.392 0-5.911 0.204-1.563 0.211-2.828 0.653-3.827 1.651-0.997 0.999-1.44 2.264-1.651 3.827-0.204 1.52-0.204 3.46-0.204 5.911v4.149c0 2.451 0 4.392 0.204 5.911 0.211 1.563 0.653 2.828 1.651 3.827 0.613 0.612 1.325 1.015 2.145 1.284v0.904c0 0.552 0.448 1 1 1h1.333c0.265 0 0.52-0.105 0.707-0.293s0.293-0.442 0.293-0.707v-0.395c1.209 0.061 2.62 0.061 4.259 0.061h0.149c1.64 0 3.049 0 4.259-0.061v0.395c0 0.552 0.448 1 1 1h1.333c0.265 0 0.52-0.105 0.707-0.293s0.293-0.442 0.293-0.707v-0.904c0.82-0.269 1.533-0.672 2.145-1.284 0.997-0.999 1.44-2.264 1.651-3.827 0.204-1.52 0.204-3.46 0.204-5.911v-4.148c0-2.451 0-4.392-0.204-5.911-0.211-1.563-0.653-2.828-1.651-3.827-0.999-0.997-2.264-1.44-3.827-1.651-1.52-0.204-3.46-0.204-5.911-0.204zM7.603 4.936c0.564-0.564 1.337-0.903 2.679-1.083 1.371-0.184 3.176-0.187 5.719-0.187s4.349 0.003 5.72 0.187c1.34 0.18 2.113 0.519 2.677 1.083s0.903 1.337 1.083 2.679c0.184 1.371 0.187 3.176 0.187 5.719v1h-19.333v-1c0-2.543 0.003-4.348 0.187-5.72 0.18-1.34 0.519-2.113 1.083-2.677zM6.333 16.333h19.333v1c0 2.543-0.003 4.349-0.187 5.72-0.18 1.34-0.519 2.113-1.083 2.677s-1.337 0.903-2.679 1.083c-1.371 0.184-3.176 0.187-5.719 0.187s-4.348-0.003-5.72-0.187c-1.34-0.18-2.113-0.519-2.677-1.083s-0.903-1.337-1.083-2.679c-0.184-1.369-0.187-3.176-0.187-5.719v-1z"></path>
</symbol>
<symbol id="radio-icon" viewBox="0 0 32 32">
<path d="M14 5c0-0.265 0.105-0.52 0.293-0.707s0.442-0.293 0.707-0.293h14c0.265 0 0.52 0.105 0.707 0.293s0.293 0.442 0.293 0.707v2c0 0.265-0.105 0.52-0.293 0.707s-0.442 0.293-0.707 0.293h-14c-0.265 0-0.52-0.105-0.707-0.293s-0.293-0.442-0.293-0.707v-2zM0 24c0-1.591 0.632-3.117 1.757-4.243s2.651-1.757 4.243-1.757 3.117 0.632 4.243 1.757c1.125 1.125 1.757 2.651 1.757 4.243s-0.632 3.117-1.757 4.243c-1.125 1.125-2.651 1.757-4.243 1.757s-3.117-0.632-4.243-1.757c-1.125-1.125-1.757-2.651-1.757-4.243zM14 21c0-0.265 0.105-0.52 0.293-0.707s0.442-0.293 0.707-0.293h14c0.265 0 0.52 0.105 0.707 0.293s0.293 0.442 0.293 0.707v2c0 0.265-0.105 0.52-0.293 0.707s-0.442 0.293-0.707 0.293h-14c-0.265 0-0.52-0.105-0.707-0.293s-0.293-0.442-0.293-0.707v-2zM14 11c0-0.265 0.105-0.52 0.293-0.707s0.442-0.293 0.707-0.293h10c0.265 0 0.52 0.105 0.707 0.293s0.293 0.442 0.293 0.707c0 0.265-0.105 0.52-0.293 0.707s-0.442 0.293-0.707 0.293h-10c-0.265 0-0.52-0.105-0.707-0.293s-0.293-0.442-0.293-0.707zM14 27c0-0.265 0.105-0.52 0.293-0.707s0.442-0.293 0.707-0.293h10c0.265 0 0.52 0.105 0.707 0.293s0.293 0.442 0.293 0.707c0 0.265-0.105 0.52-0.293 0.707s-0.442 0.293-0.707 0.293h-10c-0.265 0-0.52-0.105-0.707-0.293s-0.293-0.442-0.293-0.707zM6 2c-0.788 0-1.568 0.155-2.296 0.457s-1.389 0.744-1.947 1.301c-0.557 0.557-0.999 1.219-1.301 1.947s-0.457 1.508-0.457 2.296c0 0.788 0.155 1.568 0.457 2.296s0.744 1.389 1.301 1.947c0.557 0.557 1.219 0.999 1.947 1.301s1.508 0.457 2.296 0.457c1.591 0 3.117-0.632 4.243-1.757s1.757-2.651 1.757-4.243-0.632-3.117-1.757-4.243c-1.125-1.125-2.651-1.757-4.243-1.757zM6 11c-0.796 0-1.559-0.316-2.121-0.879s-0.879-1.326-0.879-2.121c0-0.796 0.316-1.559 0.879-2.121s1.326-0.879 2.121-0.879c0.796 0 1.559 0.316 2.121 0.879s0.879 1.326 0.879 2.121c0 0.796-0.316 1.559-0.879 2.121s-1.326 0.879-2.121 0.879z"></path>
</symbol>
<symbol id="TV-icon" viewBox="0 0 32 32">
<path d="M0 8c0 0 0-4 4-4h24c0 0 4 0 4 4v12c0 0 0 4-4 4h-8c0 1.333 0.167 2.333 0.5 3h1.5c0.265 0 0.52 0.105 0.707 0.293s0.293 0.442 0.293 0.707c0 0.265-0.105 0.52-0.293 0.707s-0.442 0.293-0.707 0.293h-12c-0.265 0-0.52-0.105-0.707-0.293s-0.293-0.442-0.293-0.707c0-0.265 0.105-0.52 0.293-0.707s0.442-0.293 0.707-0.293h1.5c0.333-0.667 0.5-1.667 0.5-3h-8c0 0-4 0-4-4v-12zM2.796 6.29c-0.22 0.153-0.395 0.361-0.508 0.604-0.168 0.353-0.266 0.735-0.288 1.126v11.98c0 0.65 0.156 1.004 0.29 1.204 0.14 0.208 0.341 0.377 0.604 0.508 0.338 0.162 0.703 0.259 1.076 0.286l0.050 0.002h23.98c0.65 0 1.004-0.156 1.204-0.29 0.22-0.153 0.395-0.361 0.508-0.604 0.162-0.338 0.259-0.703 0.286-1.076l0.002-0.050v-11.98c0-0.65-0.156-1.004-0.29-1.204-0.153-0.22-0.361-0.395-0.604-0.508-0.353-0.168-0.736-0.266-1.126-0.288h-23.98c-0.65 0-1.004 0.156-1.204 0.29z"></path>
</symbol>
<symbol id="kitchen-icon" viewBox="0 0 32 32">
<path d="M1 12c-0.15 0-0.297 0.034-0.432 0.098s-0.254 0.159-0.347 0.276c-0.094 0.117-0.16 0.253-0.194 0.399s-0.035 0.297-0.003 0.443l3.304 14.868c0.247 1.11 0.865 2.104 1.752 2.816s1.991 1.1 3.128 1.1h11.584c1.138-0 2.241-0.388 3.128-1.1s1.505-1.705 1.752-2.816l0.262-1.18c1.53 0.286 3.111-0.033 4.41-0.891s2.213-2.186 2.551-3.706c0.337-1.519 0.071-3.11-0.742-4.437s-2.111-2.285-3.618-2.674l0.442-1.98c0.032-0.146 0.031-0.298-0.003-0.443s-0.1-0.282-0.194-0.399c-0.094-0.117-0.212-0.211-0.347-0.276s-0.283-0.098-0.432-0.098h-26zM26 25c-0.212 0-0.423-0.017-0.632-0.050l1.734-7.796c0.925 0.268 1.722 0.86 2.246 1.669s0.738 1.778 0.604 2.732c-0.134 0.954-0.607 1.827-1.333 2.46s-1.656 0.983-2.619 0.985zM5.28 27.65l-3.034-13.65h23.508l-3.034 13.65c-0.148 0.666-0.519 1.262-1.051 1.69s-1.195 0.66-1.877 0.66h-11.584c-0.683-0-1.345-0.233-1.877-0.66s-0.903-1.023-1.051-1.69z"></path>
<path d="M8.8 1.6l-0.006 0.008-0.028 0.038c-0.146 0.2-0.282 0.407-0.408 0.62-0.107 0.171-0.202 0.349-0.282 0.534-0.052 0.12-0.068 0.184-0.074 0.206v0.008c0.023 0.177 0.085 0.346 0.182 0.496 0.15 0.266 0.356 0.544 0.616 0.89l0.020 0.024c0.236 0.316 0.52 0.694 0.74 1.086 0.224 0.4 0.44 0.91 0.44 1.49 0 0.376-0.13 0.736-0.238 0.988-0.116 0.268-0.251 0.527-0.404 0.776-0.157 0.262-0.326 0.517-0.506 0.764l-0.036 0.050-0.010 0.016-0.004 0.004c-0.159 0.212-0.396 0.353-0.658 0.391s-0.529-0.030-0.742-0.189-0.353-0.396-0.391-0.658c-0.038-0.263 0.030-0.529 0.189-0.742l0.006-0.008 0.028-0.038c0.146-0.2 0.282-0.407 0.408-0.62 0.107-0.171 0.202-0.349 0.282-0.534 0.052-0.12 0.068-0.184 0.074-0.206-0.021-0.179-0.083-0.352-0.18-0.504-0.186-0.31-0.392-0.608-0.618-0.89l-0.020-0.024c-0.27-0.345-0.517-0.708-0.74-1.086-0.272-0.451-0.424-0.964-0.44-1.49 0-0.376 0.13-0.736 0.238-0.988 0.118-0.276 0.268-0.548 0.404-0.776 0.159-0.261 0.328-0.516 0.506-0.764l0.050-0.070c0.159-0.212 0.396-0.353 0.658-0.391s0.529 0.030 0.742 0.189c0.212 0.159 0.353 0.396 0.391 0.658s-0.030 0.529-0.189 0.742zM14.8 1.6l-0.006 0.008-0.028 0.038c-0.146 0.2-0.282 0.407-0.408 0.62-0.107 0.171-0.202 0.349-0.282 0.534-0.052 0.12-0.068 0.184-0.074 0.206v0.008c0.023 0.177 0.085 0.346 0.182 0.496 0.15 0.266 0.356 0.544 0.616 0.89l0.020 0.024c0.236 0.316 0.52 0.694 0.74 1.086 0.224 0.4 0.44 0.91 0.44 1.49 0 0.376-0.13 0.736-0.238 0.988-0.116 0.268-0.251 0.527-0.404 0.776-0.157 0.262-0.326 0.517-0.506 0.764l-0.036 0.050-0.010 0.016-0.004 0.004c-0.159 0.212-0.396 0.353-0.658 0.391s-0.529-0.030-0.742-0.189-0.353-0.396-0.391-0.658c-0.038-0.263 0.030-0.529 0.189-0.742l0.006-0.008 0.028-0.038c0.146-0.2 0.282-0.407 0.408-0.62 0.107-0.171 0.202-0.349 0.282-0.534 0.052-0.12 0.068-0.184 0.074-0.206-0.021-0.179-0.083-0.352-0.18-0.504-0.186-0.31-0.392-0.608-0.618-0.89l-0.020-0.024c-0.27-0.345-0.517-0.708-0.74-1.086-0.272-0.451-0.424-0.964-0.44-1.49 0-0.376 0.13-0.736 0.238-0.988 0.118-0.276 0.268-0.548 0.404-0.776 0.159-0.261 0.328-0.516 0.506-0.764l0.050-0.070c0.159-0.212 0.396-0.353 0.658-0.391s0.529 0.030 0.742 0.189 0.353 0.396 0.391 0.658c0.038 0.263-0.030 0.529-0.189 0.742zM20.8 1.6l-0.006 0.008-0.028 0.038c-0.145 0.2-0.282 0.407-0.408 0.62-0.107 0.171-0.202 0.349-0.282 0.534-0.052 0.12-0.068 0.184-0.074 0.206v0.008c0.023 0.177 0.085 0.346 0.182 0.496 0.15 0.266 0.356 0.544 0.616 0.89l0.020 0.024c0.236 0.316 0.52 0.694 0.74 1.086 0.224 0.4 0.44 0.91 0.44 1.49 0 0.376-0.13 0.736-0.238 0.988-0.116 0.268-0.251 0.527-0.404 0.776-0.156 0.262-0.324 0.517-0.504 0.764l-0.038 0.050-0.010 0.016-0.004 0.004c-0.159 0.212-0.396 0.353-0.658 0.391s-0.529-0.030-0.742-0.189-0.353-0.396-0.391-0.658c-0.038-0.263 0.030-0.529 0.189-0.742l0.006-0.008 0.028-0.038c0.145-0.2 0.282-0.407 0.408-0.62 0.107-0.171 0.202-0.349 0.282-0.534 0.052-0.12 0.068-0.184 0.074-0.206-0.021-0.179-0.083-0.352-0.18-0.504-0.186-0.31-0.392-0.608-0.618-0.89l-0.020-0.024c-0.27-0.345-0.517-0.708-0.74-1.086-0.272-0.451-0.424-0.964-0.44-1.49 0-0.376 0.13-0.736 0.238-0.988 0.118-0.276 0.268-0.548 0.404-0.776 0.159-0.261 0.328-0.516 0.506-0.764l0.050-0.070c0.159-0.212 0.396-0.353 0.658-0.391s0.529 0.030 0.742 0.189 0.353 0.396 0.391 0.658c0.038 0.263-0.030 0.529-0.189 0.742z"></path>
</symbol>
<symbol id="bathroom-icon" viewBox="0 0 32 32">
<path d="M8 29.5c0 0.297-0.088 0.587-0.253 0.833s-0.399 0.439-0.673 0.552-0.576 0.143-0.867 0.085c-0.291-0.058-0.558-0.201-0.768-0.41s-0.353-0.477-0.411-0.768c-0.058-0.291-0.028-0.593 0.085-0.867s0.306-0.508 0.552-0.673c0.247-0.165 0.537-0.253 0.833-0.253 0.398 0 0.779 0.158 1.061 0.439s0.439 0.663 0.439 1.061zM10.5 24c-0.297 0-0.587 0.088-0.833 0.253s-0.439 0.399-0.552 0.673c-0.114 0.274-0.143 0.576-0.085 0.867s0.201 0.558 0.411 0.768c0.21 0.21 0.477 0.353 0.768 0.41s0.592 0.028 0.867-0.085 0.508-0.306 0.673-0.552c0.165-0.247 0.253-0.537 0.253-0.833 0-0.398-0.158-0.779-0.439-1.061s-0.663-0.439-1.061-0.439zM2.5 24c-0.297 0-0.587 0.088-0.833 0.253s-0.439 0.399-0.552 0.673c-0.114 0.274-0.143 0.576-0.085 0.867s0.201 0.558 0.411 0.768c0.21 0.21 0.477 0.353 0.768 0.41s0.593 0.028 0.867-0.085c0.274-0.113 0.508-0.306 0.673-0.552s0.253-0.537 0.253-0.833c0-0.398-0.158-0.779-0.439-1.061s-0.663-0.439-1.061-0.439zM6.5 20c-0.297 0-0.587 0.088-0.833 0.253s-0.439 0.399-0.552 0.673c-0.114 0.274-0.143 0.576-0.085 0.867s0.201 0.558 0.411 0.768c0.21 0.21 0.477 0.353 0.768 0.41s0.593 0.028 0.867-0.085c0.274-0.113 0.508-0.306 0.673-0.552s0.253-0.537 0.253-0.833c0-0.398-0.158-0.779-0.439-1.061s-0.663-0.439-1.061-0.439zM32 5c0 0.265-0.105 0.52-0.293 0.707s-0.442 0.293-0.707 0.293h-3.586l-3.481 3.482-2.707 15.849c-0.061 0.362-0.22 0.701-0.461 0.978s-0.553 0.483-0.902 0.595c-0.35 0.112-0.724 0.125-1.080 0.039s-0.683-0.27-0.943-0.529l-12.25-12.25c-0.26-0.26-0.443-0.586-0.53-0.944s-0.073-0.732 0.039-1.082c0.112-0.35 0.319-0.662 0.597-0.903s0.617-0.399 0.98-0.46l15.842-2.709 3.775-3.775c0.093-0.093 0.203-0.166 0.325-0.217s0.252-0.076 0.383-0.076h4c0.265 0 0.52 0.105 0.707 0.293s0.293 0.442 0.293 0.707zM21.776 10.224l-14.776 2.526 12.25 12.25 2.526-14.776z"></path>
</symbol>
<symbol id="AC-icon" viewBox="0 0 32 32">
<path d="M25 4c-1.326 0-2.598 0.527-3.535 1.464s-1.465 2.209-1.465 3.536c0 0.265-0.105 0.52-0.293 0.707s-0.442 0.293-0.707 0.293c-0.265 0-0.52-0.105-0.707-0.293s-0.293-0.442-0.293-0.707c0-1.384 0.41-2.738 1.18-3.889s1.862-2.048 3.142-2.578c1.279-0.53 2.687-0.668 4.044-0.398s2.605 0.937 3.584 1.916c0.979 0.979 1.646 2.226 1.916 3.584s0.131 2.765-0.398 4.044c-0.53 1.279-1.427 2.372-2.578 3.142s-2.505 1.18-3.889 1.18h-24c-0.265 0-0.52-0.105-0.707-0.293s-0.293-0.442-0.293-0.707c0-0.265 0.105-0.52 0.293-0.707s0.442-0.293 0.707-0.293h24c1.326 0 2.598-0.527 3.535-1.464s1.465-2.209 1.465-3.536-0.527-2.598-1.465-3.536c-0.938-0.938-2.209-1.464-3.535-1.464zM11 6c-0.53 0-1.039 0.211-1.414 0.586s-0.586 0.884-0.586 1.414c0 0.265-0.105 0.52-0.293 0.707s-0.442 0.293-0.707 0.293c-0.265 0-0.52-0.105-0.707-0.293s-0.293-0.442-0.293-0.707c0-0.791 0.235-1.564 0.674-2.222s1.064-1.17 1.795-1.473c0.731-0.303 1.535-0.382 2.311-0.228s1.489 0.535 2.048 1.095 0.94 1.272 1.095 2.048c0.154 0.776 0.075 1.58-0.228 2.311s-0.815 1.356-1.473 1.795-1.431 0.674-2.222 0.674h-10c-0.265 0-0.52-0.105-0.707-0.293s-0.293-0.442-0.293-0.707c0-0.265 0.105-0.52 0.293-0.707s0.442-0.293 0.707-0.293h10c0.53 0 1.039-0.211 1.414-0.586s0.586-0.884 0.586-1.414c0-0.53-0.211-1.039-0.586-1.414s-0.884-0.586-1.414-0.586zM0 19c0-0.265 0.105-0.52 0.293-0.707s0.442-0.293 0.707-0.293h20.084c1.187 0 2.347 0.352 3.333 1.011s1.756 1.596 2.21 2.693c0.454 1.096 0.573 2.303 0.341 3.467s-0.803 2.233-1.642 3.072c-0.839 0.839-1.908 1.411-3.072 1.642s-2.37 0.113-3.467-0.341-2.033-1.223-2.693-2.21c-0.659-0.987-1.011-2.147-1.011-3.333 0-0.265 0.105-0.52 0.293-0.707s0.442-0.293 0.707-0.293c0.265 0 0.52 0.105 0.707 0.293s0.293 0.442 0.293 0.707c0 0.791 0.235 1.564 0.674 2.222s1.064 1.171 1.795 1.473c0.731 0.303 1.535 0.382 2.311 0.228s1.489-0.535 2.048-1.095 0.94-1.272 1.095-2.048c0.154-0.776 0.075-1.58-0.228-2.311s-0.815-1.356-1.473-1.795c-0.658-0.439-1.431-0.674-2.222-0.674h-20.084c-0.265 0-0.52-0.105-0.707-0.293s-0.293-0.442-0.293-0.707z"></path>
</symbol>
<symbol id="transmission-icon" viewBox="0 0 32 32">
<path d="M12 7c0-0.796 0.316-1.559 0.879-2.121s1.326-0.879 2.121-0.879h2c0.796 0 1.559 0.316 2.121 0.879s0.879 1.326 0.879 2.121v2c0 0.796-0.316 1.559-0.879 2.121s-1.326 0.879-2.121 0.879v2h11c0.265 0 0.52 0.105 0.707 0.293s0.293 0.442 0.293 0.707v2c0 0.265-0.105 0.52-0.293 0.707s-0.442 0.293-0.707 0.293c-0.265 0-0.52-0.105-0.707-0.293s-0.293-0.442-0.293-0.707v-1h-10v1c0 0.265-0.105 0.52-0.293 0.707s-0.442 0.293-0.707 0.293c-0.265 0-0.52-0.105-0.707-0.293s-0.293-0.442-0.293-0.707v-1h-10v1c0 0.265-0.105 0.52-0.293 0.707s-0.442 0.293-0.707 0.293c-0.265 0-0.52-0.105-0.707-0.293s-0.293-0.442-0.293-0.707v-2c0-0.265 0.105-0.52 0.293-0.707s0.442-0.293 0.707-0.293h11v-2c-0.796 0-1.559-0.316-2.121-0.879s-0.879-1.326-0.879-2.121v-2zM17 10c0.265 0 0.52-0.105 0.707-0.293s0.293-0.442 0.293-0.707v-2c0-0.265-0.105-0.52-0.293-0.707s-0.442-0.293-0.707-0.293h-2c-0.265 0-0.52 0.105-0.707 0.293s-0.293 0.442-0.293 0.707v2c0 0.265 0.105 0.52 0.293 0.707s0.442 0.293 0.707 0.293h2zM0 23c0-0.796 0.316-1.559 0.879-2.121s1.326-0.879 2.121-0.879h2c0.796 0 1.559 0.316 2.121 0.879s0.879 1.326 0.879 2.121v2c0 0.796-0.316 1.559-0.879 2.121s-1.326 0.879-2.121 0.879h-2c-0.796 0-1.559-0.316-2.121-0.879s-0.879-1.326-0.879-2.121v-2zM3 22c-0.265 0-0.52 0.105-0.707 0.293s-0.293 0.442-0.293 0.707v2c0 0.265 0.105 0.52 0.293 0.707s0.442 0.293 0.707 0.293h2c0.265 0 0.52-0.105 0.707-0.293s0.293-0.442 0.293-0.707v-2c0-0.265-0.105-0.52-0.293-0.707s-0.442-0.293-0.707-0.293h-2zM12 23c0-0.796 0.316-1.559 0.879-2.121s1.326-0.879 2.121-0.879h2c0.796 0 1.559 0.316 2.121 0.879s0.879 1.326 0.879 2.121v2c0 0.796-0.316 1.559-0.879 2.121s-1.326 0.879-2.121 0.879h-2c-0.796 0-1.559-0.316-2.121-0.879s-0.879-1.326-0.879-2.121v-2zM15 22c-0.265 0-0.52 0.105-0.707 0.293s-0.293 0.442-0.293 0.707v2c0 0.265 0.105 0.52 0.293 0.707s0.442 0.293 0.707 0.293h2c0.265 0 0.52-0.105 0.707-0.293s0.293-0.442 0.293-0.707v-2c0-0.265-0.105-0.52-0.293-0.707s-0.442-0.293-0.707-0.293h-2zM24 23c0-0.796 0.316-1.559 0.879-2.121s1.326-0.879 2.121-0.879h2c0.796 0 1.559 0.316 2.121 0.879s0.879 1.326 0.879 2.121v2c0 0.796-0.316 1.559-0.879 2.121s-1.326 0.879-2.121 0.879h-2c-0.796 0-1.559-0.316-2.121-0.879s-0.879-1.326-0.879-2.121v-2zM27 22c-0.265 0-0.52 0.105-0.707 0.293s-0.293 0.442-0.293 0.707v2c0 0.265 0.105 0.52 0.293 0.707s0.442 0.293 0.707 0.293h2c0.265 0 0.52-0.105 0.707-0.293s0.293-0.442 0.293-0.707v-2c0-0.265-0.105-0.52-0.293-0.707s-0.442-0.293-0.707-0.293h-2z"></path>
</symbol>
<symbol id="heart-icon" viewBox="0 0 32 32">
<path d="M16 13.139l-1.788-3.578c-0.444-0.886-1.214-2.16-2.304-3.19-1.072-1.014-2.356-1.704-3.908-1.704-3.352 0-6 2.652-6 5.84 0 2.422 1.108 4.132 3.736 6.74 0.674 0.668 1.442 1.39 2.292 2.186 2.216 2.080 4.972 4.668 7.972 8.128 3-3.46 5.756-6.048 7.972-8.128 0.85-0.796 1.62-1.52 2.292-2.186 2.628-2.608 3.736-4.318 3.736-6.74 0-3.188-2.648-5.84-6-5.84-1.554 0-2.836 0.69-3.908 1.704-1.090 1.030-1.86 2.304-2.304 3.19l-1.788 3.578zM16.784 29.723c-0.096 0.114-0.216 0.206-0.352 0.269s-0.283 0.095-0.432 0.095-0.297-0.033-0.432-0.095c-0.135-0.063-0.255-0.155-0.352-0.269-3.202-3.804-6.1-6.524-8.486-8.762-4.13-3.878-6.73-6.316-6.73-10.454 0-4.33 3.58-7.84 8-7.84 3.2 0 5.438 2.1 6.808 4.016 0.52 0.73 0.916 1.432 1.192 1.984 0.346-0.691 0.745-1.354 1.192-1.984 1.37-1.918 3.608-4.016 6.808-4.016 4.42 0 8 3.51 8 7.84 0 4.138-2.6 6.576-6.73 10.454-2.386 2.24-5.284 4.962-8.486 8.762z"></path>
</symbol>
<symbol id="rating-icon" viewBox="0 0 32 32">
<path fill="#f2f4f7" style="fill: var(--color1, #f2f4f7)" d="M15.116 1.676c0.375-0.711 1.394-0.711 1.769 0l3.777 7.158c0.145 0.274 0.408 0.466 0.714 0.519l7.975 1.38c0.792 0.137 1.107 1.106 0.547 1.682l-5.641 5.804c-0.216 0.222-0.317 0.532-0.273 0.839l1.152 8.010c0.114 0.796-0.71 1.395-1.431 1.040l-7.263-3.571c-0.278-0.137-0.604-0.137-0.882 0l-7.262 3.571c-0.722 0.355-1.546-0.244-1.431-1.040l1.152-8.010c0.044-0.307-0.057-0.617-0.273-0.839l-5.64-5.804c-0.56-0.577-0.246-1.545 0.547-1.682l7.974-1.38c0.306-0.053 0.569-0.244 0.714-0.519l3.776-7.158z"></path>
</symbol>
<symbol id="Logo" viewBox="0 0 272 32">
<path fill="#475467" style="fill: var(--color2, #475467)" d="M270.786 14.375h-7.216c-0.038-0.445-0.194-0.829-0.47-1.151-0.274-0.322-0.63-0.568-1.064-0.739-0.428-0.18-0.9-0.27-1.422-0.27-0.672 0-1.25 0.123-1.732 0.369-0.484 0.246-0.72 0.597-0.71 1.051-0.010 0.322 0.128 0.62 0.412 0.895 0.292 0.275 0.856 0.488 1.69 0.639l4.432 0.795c2.234 0.407 3.896 1.094 4.986 2.060 1.098 0.956 1.652 2.24 1.662 3.849-0.010 1.553-0.474 2.903-1.392 4.048-0.91 1.136-2.156 2.017-3.736 2.642-1.572 0.616-3.368 0.923-5.384 0.923-3.334 0-5.942-0.682-7.826-2.046-1.876-1.364-2.922-3.163-3.14-5.398h7.784c0.104 0.691 0.446 1.226 1.022 1.605 0.588 0.369 1.326 0.554 2.216 0.554 0.72 0 1.312-0.123 1.776-0.369 0.474-0.246 0.716-0.597 0.724-1.051-0.008-0.417-0.218-0.748-0.624-0.994-0.398-0.246-1.024-0.445-1.876-0.597l-3.862-0.682c-2.226-0.388-3.892-1.127-5-2.216s-1.658-2.491-1.648-4.205c-0.010-1.515 0.388-2.798 1.192-3.849 0.814-1.061 1.974-1.866 3.48-2.415 1.516-0.559 3.31-0.838 5.384-0.838 3.154 0 5.64 0.653 7.458 1.96 1.828 1.307 2.788 3.116 2.884 5.426z"></path>
<path fill="#475467" style="fill: var(--color2, #475467)" d="M232.83 23.92l0.056-9.318h1.024l5.284-7.33h8.806l-8.864 11.42h-2.216l-4.090 5.227zM225.784 29.091v-29.091h7.842v29.091h-7.842zM239.25 29.091l-5-8.636 5.114-5.568 8.864 14.205h-8.978z"></path>
<path fill="#475467" style="fill: var(--color2, #475467)" d="M211.238 29.489c-2.368 0-4.394-0.469-6.080-1.406-1.686-0.947-2.978-2.263-3.878-3.949-0.9-1.695-1.349-3.66-1.349-5.895s0.449-4.195 1.349-5.881c0.9-1.695 2.192-3.011 3.878-3.949 1.686-0.947 3.712-1.42 6.080-1.42 2.14 0 3.992 0.388 5.554 1.165 1.572 0.767 2.788 1.856 3.65 3.267 0.862 1.402 1.298 3.049 1.308 4.943h-7.274c-0.104-1.146-0.436-2.017-0.994-2.614-0.55-0.606-1.26-0.909-2.13-0.909-0.682 0-1.28 0.199-1.79 0.597-0.512 0.388-0.91 0.98-1.194 1.776-0.284 0.786-0.426 1.776-0.426 2.969s0.142 2.188 0.426 2.983c0.284 0.786 0.682 1.378 1.194 1.776 0.51 0.388 1.108 0.582 1.79 0.582 0.576 0 1.088-0.133 1.534-0.398 0.444-0.275 0.804-0.672 1.078-1.193 0.286-0.53 0.456-1.174 0.512-1.932h7.274c-0.030 1.922-0.47 3.599-1.322 5.028-0.852 1.421-2.060 2.519-3.622 3.296-1.554 0.776-3.41 1.165-5.568 1.165z"></path>
<path fill="#475467" style="fill: var(--color2, #475467)" d="M188.097 19.545v-12.273h7.841v21.818h-7.443v-4.148h-0.227c-0.473 1.392-1.302 2.481-2.486 3.267-1.184 0.777-2.59 1.165-4.219 1.165-1.525 0-2.86-0.35-4.006-1.051-1.136-0.701-2.022-1.667-2.656-2.898-0.625-1.231-0.942-2.642-0.952-4.233v-13.921h7.841v12.273c0.009 1.080 0.284 1.927 0.824 2.543 0.549 0.616 1.316 0.923 2.301 0.923 0.653 0 1.217-0.137 1.69-0.412 0.483-0.284 0.852-0.682 1.108-1.193 0.265-0.521 0.393-1.141 0.383-1.861z"></path>
<path fill="#475467" style="fill: var(--color2, #475467)" d="M155.806 29.091v-21.818h7.614v4.148h0.227c0.398-1.534 1.028-2.656 1.889-3.366 0.871-0.71 1.889-1.065 3.054-1.065 0.341 0 0.677 0.028 1.009 0.085 0.341 0.047 0.668 0.118 0.98 0.213v6.69c-0.388-0.133-0.867-0.232-1.435-0.298s-1.056-0.099-1.463-0.099c-0.767 0-1.458 0.175-2.074 0.526-0.606 0.341-1.084 0.824-1.435 1.449-0.35 0.616-0.526 1.34-0.526 2.173v11.364h-7.841z"></path>
<path fill="#475467" style="fill: var(--color2, #475467)" d="M128.902 6.364v-6.364h25.284v6.364h-8.75v22.727h-7.784v-22.727h-8.75z"></path>
<path fill="#101828" style="fill: var(--color3, #101828)" d="M125.016 0v29.091h-7.841v-29.091h7.841z"></path>
<path fill="#101828" style="fill: var(--color3, #101828)" d="M102.493 29.489c-2.33 0-4.337-0.445-6.023-1.335-1.676-0.9-2.969-2.187-3.878-3.864-0.9-1.686-1.349-3.703-1.349-6.051 0-2.254 0.454-4.223 1.364-5.909s2.192-2.997 3.849-3.935 3.613-1.406 5.866-1.406c1.648 0 3.139 0.256 4.475 0.767s2.476 1.255 3.423 2.23c0.947 0.966 1.676 2.14 2.188 3.523s0.767 2.94 0.767 4.673v1.818h-19.489v-4.318h12.273c-0.009-0.625-0.17-1.174-0.483-1.648-0.303-0.483-0.715-0.857-1.236-1.122-0.511-0.275-1.094-0.412-1.747-0.412-0.635 0-1.217 0.137-1.747 0.412-0.53 0.265-0.956 0.634-1.278 1.108-0.313 0.473-0.478 1.027-0.497 1.662v4.659c0 0.701 0.147 1.326 0.44 1.875s0.715 0.98 1.264 1.293c0.549 0.313 1.212 0.469 1.989 0.469 0.54 0 1.032-0.076 1.477-0.227 0.455-0.151 0.843-0.369 1.165-0.653 0.322-0.293 0.559-0.644 0.71-1.051h7.159c-0.246 1.515-0.829 2.831-1.747 3.949-0.919 1.108-2.135 1.97-3.651 2.585-1.506 0.606-3.267 0.909-5.284 0.909z"></path>
<path fill="#101828" style="fill: var(--color3, #101828)" d="M89.673 7.273l-7.33 21.818h-9.091l-7.329-21.818h8.239l3.523 14.432h0.227l3.523-14.432h8.239z"></path>
<path fill="#101828" style="fill: var(--color3, #101828)" d="M50.112 29.432c-1.392 0-2.623-0.227-3.693-0.682-1.061-0.464-1.894-1.165-2.5-2.102s-0.909-2.131-0.909-3.58c0-1.193 0.204-2.211 0.611-3.054 0.407-0.852 0.975-1.548 1.705-2.088s1.577-0.952 2.543-1.236c0.975-0.284 2.026-0.469 3.153-0.554 1.222-0.095 2.202-0.208 2.94-0.341 0.748-0.142 1.288-0.336 1.619-0.582 0.331-0.256 0.497-0.592 0.497-1.009v-0.057c0-0.568-0.218-1.004-0.653-1.307s-0.994-0.455-1.676-0.455c-0.748 0-1.359 0.166-1.832 0.497-0.464 0.322-0.743 0.819-0.838 1.491h-7.216c0.095-1.326 0.516-2.547 1.264-3.665 0.758-1.127 1.861-2.027 3.31-2.699 1.449-0.682 3.257-1.023 5.426-1.023 1.563 0 2.964 0.185 4.205 0.554 1.241 0.36 2.296 0.866 3.168 1.52 0.871 0.644 1.534 1.402 1.989 2.273 0.464 0.862 0.696 1.799 0.696 2.813v14.943h-7.329v-3.068h-0.171c-0.436 0.814-0.966 1.473-1.591 1.974-0.616 0.502-1.321 0.867-2.117 1.094-0.786 0.227-1.652 0.341-2.599 0.341zM52.669 24.489c0.597 0 1.155-0.123 1.676-0.369 0.53-0.246 0.961-0.601 1.293-1.065s0.497-1.027 0.497-1.69v-1.818c-0.208 0.085-0.431 0.166-0.668 0.241-0.227 0.076-0.474 0.147-0.739 0.213-0.256 0.066-0.53 0.128-0.824 0.185-0.284 0.057-0.582 0.109-0.895 0.156-0.606 0.095-1.103 0.251-1.492 0.469-0.379 0.208-0.663 0.469-0.852 0.781-0.18 0.303-0.27 0.644-0.27 1.023 0 0.606 0.213 1.070 0.639 1.392s0.971 0.483 1.633 0.483z"></path>
<path fill="#101828" style="fill: var(--color3, #101828)" d="M26.904 29.091v-21.818h7.614v4.148h0.227c0.398-1.534 1.027-2.656 1.889-3.366 0.871-0.71 1.889-1.065 3.054-1.065 0.341 0 0.677 0.028 1.008 0.085 0.341 0.047 0.668 0.118 0.98 0.213v6.69c-0.388-0.133-0.867-0.232-1.435-0.298s-1.056-0.099-1.463-0.099c-0.767 0-1.458 0.175-2.074 0.526-0.606 0.341-1.084 0.824-1.435 1.449-0.35 0.616-0.525 1.34-0.525 2.173v11.364h-7.841z"></path>
<path fill="#101828" style="fill: var(--color3, #101828)" d="M0 6.364v-6.364h25.284v6.364h-8.75v22.727h-7.784v-22.727h-8.75z"></path>
</symbol>
<symbol id="water" viewBox="0 0 73 32">
<path fill="#f2f4f7" style="fill: var(--color1, #f2f4f7)" d="M16 0h41.333c8.837 0 16 7.163 16 16s-7.163 16-16 16h-41.333c-8.837 0-16-7.163-16-16s7.163-16 16-16z"></path>
<path fill="none" stroke="#101828" style="stroke: var(--color3, #101828)" stroke-linejoin="miter" stroke-linecap="butt" stroke-miterlimit="10" stroke-width="0.8333" d="M22.417 17.667c0 2.301-1.449 3.75-3.75 3.75s-3.75-1.449-3.75-3.75c0-2.47 2.688-5.803 3.513-6.768 0.029-0.034 0.066-0.062 0.107-0.081s0.086-0.029 0.131-0.029 0.090 0.010 0.131 0.029c0.041 0.019 0.077 0.046 0.107 0.081 0.824 0.964 3.513 4.298 3.513 6.768z"></path>
<path fill="none" stroke="#101828" style="stroke: var(--color3, #101828)" stroke-linejoin="round" stroke-linecap="round" stroke-miterlimit="4" stroke-width="0.8333" d="M20.958 17.875c0 0.497-0.198 0.974-0.549 1.326s-0.829 0.549-1.326 0.549"></path>
<path fill="#101828" style="fill: var(--color3, #101828)" d="M33.277 20l-2.152-7.758h1.231l1.511 6.008h0.072l1.572-6.008h1.22l1.572 6.011h0.072l1.508-6.011h1.235l-2.155 7.758h-1.178l-1.633-5.811h-0.061l-1.633 5.811h-1.182zM43.215 20.129c-0.369 0-0.702-0.068-1-0.205-0.298-0.139-0.534-0.34-0.708-0.602-0.172-0.263-0.258-0.585-0.258-0.966 0-0.328 0.063-0.598 0.189-0.811s0.297-0.38 0.511-0.504c0.215-0.124 0.455-0.217 0.72-0.28s0.535-0.111 0.811-0.144c0.348-0.040 0.631-0.073 0.848-0.098 0.217-0.028 0.375-0.072 0.473-0.133s0.148-0.159 0.148-0.295v-0.027c0-0.331-0.093-0.587-0.28-0.769-0.184-0.182-0.46-0.273-0.826-0.273-0.381 0-0.682 0.085-0.901 0.254-0.217 0.167-0.367 0.352-0.451 0.557l-1.064-0.242c0.126-0.354 0.311-0.639 0.553-0.856 0.245-0.22 0.526-0.379 0.845-0.477 0.318-0.101 0.653-0.152 1.004-0.152 0.232 0 0.479 0.028 0.739 0.083 0.263 0.053 0.508 0.152 0.735 0.295 0.23 0.144 0.418 0.35 0.564 0.617 0.146 0.265 0.22 0.61 0.22 1.034v3.864h-1.106v-0.795h-0.045c-0.073 0.146-0.183 0.29-0.33 0.432s-0.335 0.259-0.564 0.352c-0.23 0.093-0.505 0.14-0.826 0.14zM43.461 19.22c0.313 0 0.581-0.062 0.803-0.186 0.225-0.124 0.395-0.285 0.511-0.485 0.119-0.202 0.178-0.418 0.178-0.648v-0.75c-0.040 0.040-0.119 0.078-0.235 0.114-0.114 0.033-0.244 0.062-0.39 0.087-0.146 0.023-0.289 0.044-0.428 0.064-0.139 0.018-0.255 0.033-0.349 0.045-0.22 0.028-0.42 0.074-0.602 0.14-0.179 0.066-0.323 0.16-0.432 0.284-0.106 0.121-0.159 0.283-0.159 0.485 0 0.28 0.104 0.492 0.311 0.636 0.207 0.141 0.471 0.212 0.792 0.212zM50.311 14.182v0.909h-3.178v-0.909h3.178zM47.985 12.788h1.133v5.504c0 0.22 0.033 0.385 0.099 0.496 0.066 0.109 0.15 0.183 0.254 0.223 0.106 0.038 0.221 0.057 0.345 0.057 0.091 0 0.17-0.006 0.239-0.019s0.121-0.023 0.159-0.030l0.205 0.936c-0.066 0.025-0.159 0.051-0.28 0.076-0.121 0.028-0.273 0.043-0.455 0.045-0.298 0.005-0.576-0.048-0.833-0.159s-0.466-0.283-0.625-0.515c-0.159-0.232-0.239-0.524-0.239-0.875v-5.739zM54.009 20.117c-0.573 0-1.067-0.122-1.481-0.367-0.412-0.247-0.73-0.595-0.955-1.042-0.222-0.449-0.333-0.976-0.333-1.58 0-0.596 0.111-1.121 0.333-1.576 0.225-0.455 0.538-0.809 0.939-1.064 0.404-0.255 0.876-0.383 1.417-0.383 0.328 0 0.646 0.054 0.955 0.163s0.585 0.279 0.83 0.511c0.245 0.232 0.438 0.534 0.58 0.905 0.141 0.369 0.212 0.817 0.212 1.345v0.401h-4.625v-0.848h3.515c0-0.298-0.061-0.562-0.182-0.792-0.121-0.232-0.292-0.415-0.511-0.549-0.217-0.134-0.472-0.201-0.765-0.201-0.318 0-0.596 0.078-0.833 0.235-0.235 0.154-0.417 0.356-0.545 0.606-0.126 0.247-0.189 0.516-0.189 0.807v0.663c0 0.389 0.068 0.72 0.205 0.992 0.139 0.273 0.332 0.481 0.58 0.625 0.247 0.141 0.537 0.212 0.867 0.212 0.215 0 0.41-0.030 0.587-0.091 0.177-0.063 0.33-0.157 0.458-0.28s0.227-0.277 0.295-0.458l1.072 0.193c-0.086 0.316-0.24 0.592-0.462 0.83-0.22 0.235-0.496 0.418-0.83 0.549-0.331 0.129-0.708 0.193-1.133 0.193zM57.761 20v-5.818h1.095v0.924h0.061c0.106-0.313 0.293-0.559 0.561-0.739 0.27-0.182 0.576-0.273 0.917-0.273 0.071 0 0.154 0.003 0.25 0.008 0.098 0.005 0.176 0.011 0.231 0.019v1.083c-0.045-0.013-0.126-0.027-0.242-0.042-0.116-0.018-0.232-0.027-0.349-0.027-0.268 0-0.506 0.057-0.716 0.17-0.207 0.111-0.371 0.266-0.492 0.466-0.121 0.197-0.182 0.422-0.182 0.674v3.553h-1.133z"></path>
</symbol>
<symbol id="gas" viewBox="0 0 63 32">
<path fill="#f2f4f7" style="fill: var(--color1, #f2f4f7)" d="M16 0h30.667c8.837 0 16 7.163 16 16s-7.163 16-16 16h-30.667c-8.837 0-16-7.163-16-16s7.163-16 16-16z"></path>
<path fill="none" stroke="#101828" style="stroke: var(--color3, #101828)" stroke-linejoin="round" stroke-linecap="round" stroke-miterlimit="4" stroke-width="1" d="M15.333 19.889h2.222M22 19.894v-0.005M13.111 12.667c0-1.839 0.383-2.222 2.222-2.222h6.667c1.839 0 2.222 0.383 2.222 2.222v6.667c0 1.839-0.383 2.222-2.222 2.222h-6.667c-1.839 0-2.222-0.383-2.222-2.222v-6.667z"></path>
<path fill="none" stroke="#101828" style="stroke: var(--color3, #101828)" stroke-linejoin="round" stroke-linecap="round" stroke-miterlimit="4" stroke-width="1" d="M18.667 17.111c1.227 0 2.222-0.995 2.222-2.222s-0.995-2.222-2.222-2.222c-1.227 0-2.222 0.995-2.222 2.222s0.995 2.222 2.222 2.222z"></path>
<path fill="none" stroke="#101828" style="stroke: var(--color3, #101828)" stroke-linejoin="round" stroke-linecap="round" stroke-miterlimit="4" stroke-width="1" d="M20.611 14.889h0.833M18.667 16.833v0.833M16.722 14.889h-0.833M18.667 12.944v-0.833"></path>
<path fill="#101828" style="fill: var(--color3, #101828)" d="M36.878 14.693c-0.073-0.23-0.172-0.436-0.295-0.617-0.121-0.184-0.266-0.341-0.436-0.47-0.169-0.131-0.362-0.231-0.58-0.299-0.215-0.068-0.451-0.102-0.708-0.102-0.437 0-0.831 0.112-1.182 0.337s-0.629 0.554-0.833 0.989c-0.202 0.432-0.303 0.961-0.303 1.587 0 0.629 0.102 1.16 0.307 1.595s0.485 0.764 0.841 0.989c0.356 0.225 0.761 0.337 1.216 0.337 0.422 0 0.789-0.086 1.102-0.258 0.316-0.172 0.559-0.414 0.731-0.727 0.174-0.316 0.261-0.687 0.261-1.114l0.303 0.057h-2.22v-0.966h3.049v0.883c0 0.652-0.139 1.217-0.417 1.697-0.275 0.477-0.657 0.846-1.144 1.106-0.485 0.26-1.040 0.39-1.667 0.39-0.702 0-1.318-0.162-1.848-0.485-0.528-0.323-0.939-0.782-1.235-1.375-0.295-0.596-0.443-1.303-0.443-2.121 0-0.619 0.086-1.174 0.258-1.667s0.413-0.91 0.724-1.254c0.313-0.346 0.681-0.61 1.102-0.792 0.424-0.184 0.888-0.277 1.39-0.277 0.419 0 0.809 0.062 1.17 0.186 0.364 0.124 0.687 0.299 0.97 0.526 0.285 0.227 0.521 0.497 0.708 0.811 0.187 0.311 0.313 0.655 0.379 1.034h-1.201zM41.22 20.129c-0.369 0-0.702-0.068-1-0.205-0.298-0.139-0.534-0.34-0.708-0.602-0.172-0.263-0.258-0.585-0.258-0.966 0-0.328 0.063-0.598 0.189-0.811s0.297-0.38 0.511-0.504c0.215-0.124 0.455-0.217 0.72-0.28s0.535-0.111 0.811-0.144c0.348-0.040 0.631-0.073 0.848-0.098 0.217-0.028 0.375-0.072 0.473-0.133s0.148-0.159 0.148-0.295v-0.027c0-0.331-0.093-0.587-0.28-0.769-0.184-0.182-0.46-0.273-0.826-0.273-0.381 0-0.682 0.085-0.901 0.254-0.217 0.167-0.367 0.352-0.451 0.557l-1.064-0.242c0.126-0.354 0.311-0.639 0.553-0.856 0.245-0.22 0.527-0.379 0.845-0.477 0.318-0.101 0.653-0.152 1.004-0.152 0.232 0 0.479 0.028 0.739 0.083 0.263 0.053 0.508 0.152 0.735 0.295 0.23 0.144 0.418 0.35 0.564 0.617 0.146 0.265 0.22 0.61 0.22 1.034v3.864h-1.106v-0.795h-0.045c-0.073 0.146-0.183 0.29-0.33 0.432s-0.335 0.259-0.564 0.352c-0.23 0.093-0.505 0.14-0.826 0.14zM41.466 19.22c0.313 0 0.581-0.062 0.803-0.186 0.225-0.124 0.395-0.285 0.511-0.485 0.119-0.202 0.178-0.418 0.178-0.648v-0.75c-0.040 0.040-0.119 0.078-0.235 0.114-0.114 0.033-0.244 0.062-0.39 0.087-0.146 0.023-0.289 0.044-0.428 0.064-0.139 0.018-0.255 0.033-0.349 0.045-0.22 0.028-0.42 0.074-0.602 0.14-0.179 0.066-0.323 0.16-0.432 0.284-0.106 0.121-0.159 0.283-0.159 0.485 0 0.28 0.104 0.492 0.311 0.636 0.207 0.141 0.471 0.212 0.792 0.212zM49.96 15.602l-1.026 0.182c-0.043-0.131-0.111-0.256-0.205-0.375-0.091-0.119-0.215-0.216-0.371-0.292s-0.352-0.114-0.587-0.114c-0.321 0-0.588 0.072-0.803 0.216-0.215 0.141-0.322 0.325-0.322 0.549 0 0.194 0.072 0.351 0.216 0.47s0.376 0.216 0.697 0.292l0.924 0.212c0.535 0.124 0.934 0.314 1.197 0.572s0.394 0.592 0.394 1.004c0 0.348-0.101 0.659-0.303 0.932-0.199 0.27-0.479 0.482-0.837 0.636-0.356 0.154-0.769 0.231-1.239 0.231-0.652 0-1.183-0.139-1.595-0.417-0.412-0.28-0.664-0.678-0.758-1.193l1.095-0.167c0.068 0.285 0.208 0.501 0.42 0.648 0.212 0.144 0.489 0.216 0.83 0.216 0.371 0 0.668-0.077 0.89-0.231 0.222-0.157 0.333-0.347 0.333-0.572 0-0.182-0.068-0.335-0.205-0.458-0.134-0.124-0.34-0.217-0.617-0.28l-0.985-0.216c-0.543-0.124-0.944-0.321-1.205-0.591-0.258-0.27-0.386-0.612-0.386-1.027 0-0.343 0.096-0.644 0.288-0.902s0.457-0.458 0.795-0.602c0.338-0.146 0.726-0.22 1.163-0.22 0.629 0 1.124 0.136 1.485 0.409 0.361 0.27 0.6 0.633 0.716 1.087z"></path>
</symbol>
<symbol id="microwave" viewBox="0 0 98 32">
<path fill="#f2f4f7" style="fill: var(--color1, #f2f4f7)" d="M16 0h66c8.837 0 16 7.163 16 16s-7.163 16-16 16h-66c-8.837 0-16-7.163-16-16s7.163-16 16-16z"></path>
<path fill="none" stroke="#101828" style="stroke: var(--color3, #101828)" stroke-linejoin="round" stroke-linecap="round" stroke-miterlimit="4" stroke-width="0.8333" d="M23.111 11.556h-8.889c-0.614 0-1.111 0.497-1.111 1.111v6.111c0 0.614 0.497 1.111 1.111 1.111h8.889c0.614 0 1.111-0.497 1.111-1.111v-6.111c0-0.614-0.497-1.111-1.111-1.111z"></path>
<path fill="none" stroke="#101828" style="stroke: var(--color3, #101828)" stroke-linejoin="round" stroke-linecap="round" stroke-miterlimit="4" stroke-width="0.8333" d="M19.222 13.778h-3.333c-0.307 0-0.556 0.249-0.556 0.556v2.778c0 0.307 0.249 0.556 0.556 0.556h3.333c0.307 0 0.556-0.249 0.556-0.556v-2.778c0-0.307-0.249-0.556-0.556-0.556z"></path>
<path fill="none" stroke="#101828" style="stroke: var(--color3, #101828)" stroke-linejoin="round" stroke-linecap="round" stroke-miterlimit="4" stroke-width="0.8333" d="M22 13.778v3.889M15.333 19.889v1.111M22 19.889v1.111"></path>
<path fill="#101828" style="fill: var(--color3, #101828)" d="M31.592 12.242h1.42l2.47 6.030h0.091l2.47-6.030h1.42v7.758h-1.114v-5.614h-0.072l-2.288 5.602h-0.924l-2.288-5.606h-0.072v5.617h-1.114v-7.758zM41.074 20v-5.818h1.133v5.818h-1.133zM41.646 13.284c-0.197 0-0.366-0.066-0.508-0.197-0.139-0.134-0.208-0.293-0.208-0.477 0-0.187 0.069-0.346 0.208-0.477 0.141-0.134 0.311-0.201 0.508-0.201s0.365 0.067 0.504 0.201c0.141 0.131 0.212 0.29 0.212 0.477 0 0.184-0.071 0.343-0.212 0.477-0.139 0.131-0.307 0.197-0.504 0.197zM46.181 20.117c-0.563 0-1.048-0.128-1.455-0.383-0.404-0.258-0.715-0.612-0.932-1.064s-0.326-0.97-0.326-1.553c0-0.591 0.111-1.112 0.333-1.564 0.222-0.455 0.535-0.809 0.939-1.064s0.88-0.383 1.428-0.383c0.442 0 0.836 0.082 1.182 0.246 0.346 0.162 0.625 0.389 0.837 0.682 0.215 0.293 0.342 0.635 0.383 1.027h-1.102c-0.061-0.273-0.199-0.508-0.417-0.705-0.215-0.197-0.503-0.295-0.864-0.295-0.316 0-0.592 0.083-0.83 0.25-0.235 0.164-0.418 0.399-0.549 0.705-0.131 0.303-0.197 0.662-0.197 1.076 0 0.424 0.064 0.79 0.193 1.098s0.311 0.547 0.545 0.716c0.237 0.169 0.516 0.254 0.837 0.254 0.215 0 0.409-0.039 0.583-0.117 0.177-0.081 0.324-0.196 0.443-0.345 0.121-0.149 0.206-0.328 0.254-0.538h1.102c-0.040 0.376-0.163 0.712-0.367 1.008s-0.479 0.528-0.822 0.697c-0.341 0.169-0.741 0.254-1.201 0.254zM49.782 20v-5.818h1.095v0.924h0.061c0.106-0.313 0.293-0.559 0.561-0.739 0.27-0.182 0.576-0.273 0.917-0.273 0.071 0 0.154 0.003 0.25 0.008 0.098 0.005 0.175 0.011 0.231 0.019v1.083c-0.045-0.013-0.126-0.027-0.242-0.042-0.116-0.018-0.232-0.027-0.348-0.027-0.268 0-0.506 0.057-0.716 0.17-0.207 0.111-0.371 0.266-0.492 0.466-0.121 0.197-0.182 0.422-0.182 0.674v3.553h-1.133zM56.118 20.117c-0.545 0-1.021-0.125-1.428-0.375s-0.722-0.6-0.947-1.049c-0.225-0.45-0.337-0.975-0.337-1.576 0-0.604 0.112-1.131 0.337-1.583s0.54-0.803 0.947-1.053c0.407-0.25 0.883-0.375 1.428-0.375s1.021 0.125 1.428 0.375c0.407 0.25 0.722 0.601 0.947 1.053s0.337 0.98 0.337 1.583c0 0.601-0.112 1.126-0.337 1.576s-0.54 0.799-0.947 1.049c-0.407 0.25-0.883 0.375-1.428 0.375zM56.122 19.167c0.354 0 0.646-0.093 0.879-0.28s0.404-0.436 0.515-0.746c0.114-0.311 0.17-0.653 0.17-1.026 0-0.371-0.057-0.712-0.17-1.023-0.111-0.313-0.283-0.564-0.515-0.754s-0.525-0.284-0.879-0.284c-0.356 0-0.651 0.095-0.886 0.284-0.232 0.189-0.405 0.441-0.519 0.754-0.111 0.311-0.167 0.651-0.167 1.023 0 0.374 0.056 0.716 0.167 1.026 0.114 0.311 0.287 0.559 0.519 0.746 0.235 0.187 0.53 0.28 0.886 0.28zM61.179 20l-1.712-5.818h1.17l1.14 4.273h0.057l1.144-4.273h1.17l1.136 4.254h0.057l1.133-4.254h1.17l-1.708 5.818h-1.155l-1.182-4.201h-0.087l-1.182 4.201h-1.151zM70.413 20.129c-0.369 0-0.702-0.068-1-0.205-0.298-0.139-0.534-0.34-0.708-0.602-0.172-0.263-0.258-0.585-0.258-0.966 0-0.328 0.063-0.598 0.19-0.811s0.297-0.38 0.511-0.504 0.454-0.217 0.719-0.28c0.265-0.063 0.535-0.111 0.811-0.144 0.349-0.040 0.631-0.073 0.849-0.098 0.217-0.028 0.375-0.072 0.473-0.133s0.148-0.159 0.148-0.295v-0.027c0-0.331-0.094-0.587-0.281-0.769-0.184-0.182-0.459-0.273-0.826-0.273-0.381 0-0.681 0.085-0.901 0.254-0.217 0.167-0.367 0.352-0.451 0.557l-1.064-0.242c0.126-0.354 0.31-0.639 0.553-0.856 0.245-0.22 0.527-0.379 0.845-0.477 0.318-0.101 0.653-0.152 1.004-0.152 0.232 0 0.479 0.028 0.739 0.083 0.263 0.053 0.507 0.152 0.735 0.295 0.23 0.144 0.418 0.35 0.565 0.617 0.146 0.265 0.219 0.61 0.219 1.034v3.864h-1.106v-0.795h-0.045c-0.073 0.146-0.183 0.29-0.329 0.432s-0.335 0.259-0.565 0.352c-0.23 0.093-0.505 0.14-0.826 0.14zM70.659 19.22c0.313 0 0.581-0.062 0.803-0.186 0.225-0.124 0.395-0.285 0.511-0.485 0.119-0.202 0.178-0.418 0.178-0.648v-0.75c-0.040 0.040-0.119 0.078-0.235 0.114-0.113 0.033-0.244 0.062-0.39 0.087-0.147 0.023-0.289 0.044-0.428 0.064-0.139 0.018-0.255 0.033-0.349 0.045-0.22 0.028-0.421 0.074-0.602 0.14-0.179 0.066-0.323 0.16-0.432 0.284-0.106 0.121-0.159 0.283-0.159 0.485 0 0.28 0.104 0.492 0.311 0.636 0.207 0.141 0.471 0.212 0.792 0.212zM79.561 14.182l-2.109 5.818h-1.213l-2.113-5.818h1.216l1.473 4.477h0.061l1.469-4.477h1.216zM82.935 20.117c-0.573 0-1.067-0.122-1.481-0.367-0.412-0.247-0.73-0.595-0.955-1.042-0.222-0.449-0.333-0.976-0.333-1.58 0-0.596 0.111-1.121 0.333-1.576 0.225-0.455 0.538-0.809 0.939-1.064 0.404-0.255 0.876-0.383 1.417-0.383 0.329 0 0.647 0.054 0.955 0.163s0.585 0.279 0.829 0.511c0.245 0.232 0.438 0.534 0.58 0.905 0.141 0.369 0.212 0.817 0.212 1.345v0.401h-4.625v-0.848h3.515c0-0.298-0.061-0.562-0.182-0.792-0.121-0.232-0.291-0.415-0.511-0.549-0.217-0.134-0.472-0.201-0.765-0.201-0.318 0-0.595 0.078-0.833 0.235-0.235 0.154-0.417 0.356-0.545 0.606-0.126 0.247-0.189 0.516-0.189 0.807v0.663c0 0.389 0.068 0.72 0.205 0.992 0.139 0.273 0.332 0.481 0.579 0.625 0.248 0.141 0.537 0.212 0.867 0.212 0.215 0 0.411-0.030 0.587-0.091 0.177-0.063 0.329-0.157 0.459-0.28s0.227-0.277 0.295-0.458l1.072 0.193c-0.086 0.316-0.24 0.592-0.462 0.83-0.22 0.235-0.497 0.418-0.83 0.549-0.331 0.129-0.708 0.193-1.133 0.193z"></path>
</symbol>
<symbol id="refrigerator" viewBox="0 0 104 32">
<path fill="#f2f4f7" style="fill: var(--color1, #f2f4f7)" d="M16 0h72c8.837 0 16 7.163 16 16s-7.163 16-16 16h-72c-8.837 0-16-7.163-16-16s7.163-16 16-16z"></path>
<path fill="#101828" style="fill: var(--color3, #101828)" d="M21.861 13.222c0-0.11-0.044-0.216-0.122-0.295s-0.184-0.122-0.295-0.122c-0.111 0-0.217 0.044-0.295 0.122s-0.122 0.184-0.122 0.295v1.111c0 0.11 0.044 0.216 0.122 0.295s0.184 0.122 0.295 0.122c0.11 0 0.216-0.044 0.295-0.122s0.122-0.184 0.122-0.295v-1.111zM21.861 17.111c0-0.11-0.044-0.216-0.122-0.295s-0.184-0.122-0.295-0.122c-0.111 0-0.217 0.044-0.295 0.122s-0.122 0.184-0.122 0.295v1.111c0 0.111 0.044 0.216 0.122 0.295s0.184 0.122 0.295 0.122c0.11 0 0.216-0.044 0.295-0.122s0.122-0.184 0.122-0.295v-1.111z"></path>
<path fill="#101828" style="fill: var(--color3, #101828)" d="M18.698 10.028h-0.062c-1.021 0-1.83 0-2.463 0.085-0.651 0.088-1.178 0.272-1.594 0.688s-0.6 0.943-0.688 1.594c-0.085 0.633-0.085 1.442-0.085 2.463v1.729c0 1.021 0 1.83 0.085 2.463 0.088 0.651 0.272 1.178 0.688 1.594 0.256 0.255 0.552 0.423 0.894 0.535v0.377c0 0.23 0.187 0.417 0.417 0.417h0.556c0.11 0 0.216-0.044 0.295-0.122s0.122-0.184 0.122-0.295v-0.164c0.504 0.026 1.092 0.026 1.774 0.026h0.062c0.683 0 1.271 0 1.774-0.026v0.164c0 0.23 0.187 0.417 0.417 0.417h0.556c0.11 0 0.216-0.044 0.295-0.122s0.122-0.184 0.122-0.295v-0.377c0.342-0.112 0.639-0.28 0.894-0.535 0.416-0.416 0.6-0.943 0.688-1.594 0.085-0.633 0.085-1.442 0.085-2.463v-1.728c0-1.021 0-1.83-0.085-2.463-0.088-0.651-0.272-1.178-0.688-1.594s-0.943-0.6-1.594-0.688c-0.633-0.085-1.442-0.085-2.463-0.085zM15.168 11.39c0.235-0.235 0.557-0.376 1.116-0.451 0.571-0.077 1.323-0.078 2.383-0.078s1.812 0.001 2.383 0.078c0.558 0.075 0.881 0.216 1.116 0.451s0.376 0.557 0.451 1.116c0.077 0.571 0.078 1.323 0.078 2.383v0.417h-8.056v-0.417c0-1.059 0.001-1.812 0.078-2.383 0.075-0.558 0.216-0.881 0.451-1.116zM14.639 16.139h8.056v0.417c0 1.059-0.001 1.812-0.078 2.383-0.075 0.558-0.216 0.881-0.451 1.116s-0.557 0.376-1.116 0.451c-0.571 0.077-1.323 0.078-2.383 0.078s-1.812-0.001-2.383-0.078c-0.558-0.075-0.881-0.216-1.116-0.451s-0.376-0.557-0.451-1.116c-0.077-0.571-0.078-1.323-0.078-2.383v-0.417z"></path>
<path fill="#101828" style="fill: var(--color3, #101828)" d="M31.618 20v-7.758h2.765c0.601 0 1.1 0.104 1.496 0.311 0.399 0.207 0.697 0.494 0.894 0.86 0.197 0.364 0.295 0.784 0.295 1.261 0 0.475-0.1 0.893-0.299 1.254-0.197 0.359-0.495 0.638-0.894 0.837-0.396 0.2-0.895 0.299-1.496 0.299h-2.095v-1.008h1.989c0.379 0 0.687-0.054 0.924-0.163 0.24-0.109 0.415-0.266 0.526-0.473s0.167-0.456 0.167-0.746c0-0.293-0.057-0.547-0.17-0.761-0.111-0.215-0.287-0.379-0.527-0.492-0.237-0.116-0.549-0.174-0.936-0.174h-1.47v6.754h-1.17zM35.447 16.5l1.917 3.5h-1.333l-1.879-3.5h1.295zM40.837 20.117c-0.573 0-1.067-0.122-1.481-0.367-0.412-0.247-0.73-0.595-0.955-1.042-0.222-0.449-0.333-0.976-0.333-1.58 0-0.596 0.111-1.121 0.333-1.576 0.225-0.455 0.538-0.809 0.939-1.064 0.404-0.255 0.876-0.383 1.417-0.383 0.328 0 0.646 0.054 0.955 0.163s0.585 0.279 0.83 0.511c0.245 0.232 0.438 0.534 0.58 0.905 0.141 0.369 0.212 0.817 0.212 1.345v0.401h-4.625v-0.848h3.515c0-0.298-0.061-0.562-0.182-0.792-0.121-0.232-0.292-0.415-0.511-0.549-0.217-0.134-0.472-0.201-0.765-0.201-0.318 0-0.596 0.078-0.833 0.235-0.235 0.154-0.417 0.356-0.545 0.606-0.126 0.247-0.189 0.516-0.189 0.807v0.663c0 0.389 0.068 0.72 0.205 0.992 0.139 0.273 0.332 0.481 0.58 0.625 0.247 0.141 0.537 0.212 0.867 0.212 0.215 0 0.41-0.030 0.587-0.091 0.177-0.063 0.33-0.157 0.458-0.28s0.227-0.277 0.295-0.458l1.072 0.193c-0.086 0.316-0.24 0.592-0.462 0.83-0.22 0.235-0.496 0.418-0.83 0.549-0.331 0.129-0.708 0.193-1.133 0.193zM47.358 14.182v0.909h-3.288v-0.909h3.288zM44.972 20v-6.492c0-0.364 0.080-0.665 0.239-0.905 0.159-0.242 0.37-0.423 0.633-0.542 0.263-0.121 0.548-0.182 0.856-0.182 0.227 0 0.422 0.019 0.583 0.057 0.162 0.035 0.282 0.068 0.36 0.098l-0.265 0.917c-0.053-0.015-0.121-0.033-0.205-0.053-0.083-0.023-0.184-0.034-0.303-0.034-0.275 0-0.472 0.068-0.591 0.205-0.116 0.136-0.174 0.333-0.174 0.591v6.341h-1.133zM48.527 20v-5.818h1.095v0.924h0.061c0.106-0.313 0.293-0.559 0.561-0.739 0.27-0.182 0.576-0.273 0.917-0.273 0.071 0 0.154 0.003 0.25 0.008 0.099 0.005 0.176 0.011 0.231 0.019v1.083c-0.045-0.013-0.126-0.027-0.242-0.042-0.116-0.018-0.232-0.027-0.348-0.027-0.268 0-0.506 0.057-0.716 0.17-0.207 0.111-0.371 0.266-0.492 0.466-0.121 0.197-0.182 0.422-0.182 0.674v3.553h-1.133zM52.621 20v-5.818h1.133v5.818h-1.133zM53.193 13.284c-0.197 0-0.366-0.066-0.508-0.197-0.139-0.134-0.208-0.293-0.208-0.477 0-0.187 0.069-0.346 0.208-0.477 0.141-0.134 0.311-0.201 0.508-0.201s0.365 0.067 0.504 0.201c0.141 0.131 0.212 0.29 0.212 0.477 0 0.184-0.071 0.343-0.212 0.477-0.139 0.131-0.307 0.197-0.504 0.197zM57.716 22.303c-0.462 0-0.86-0.061-1.193-0.182-0.331-0.121-0.601-0.282-0.811-0.481s-0.366-0.418-0.47-0.655l0.974-0.402c0.068 0.111 0.159 0.229 0.273 0.352 0.116 0.126 0.273 0.234 0.47 0.322 0.2 0.088 0.456 0.133 0.769 0.133 0.429 0 0.784-0.105 1.064-0.314 0.28-0.207 0.42-0.538 0.42-0.992v-1.144h-0.072c-0.068 0.124-0.167 0.261-0.295 0.413-0.126 0.152-0.301 0.283-0.523 0.394s-0.511 0.167-0.867 0.167c-0.46 0-0.874-0.107-1.242-0.322-0.366-0.217-0.657-0.537-0.871-0.958-0.212-0.424-0.318-0.946-0.318-1.564s0.105-1.149 0.314-1.591c0.212-0.442 0.503-0.78 0.871-1.015 0.369-0.237 0.787-0.356 1.254-0.356 0.361 0 0.653 0.061 0.875 0.182 0.222 0.119 0.395 0.258 0.519 0.417 0.126 0.159 0.223 0.299 0.292 0.42h0.083v-0.943h1.11v5.947c0 0.5-0.116 0.91-0.349 1.231s-0.547 0.558-0.943 0.712c-0.394 0.154-0.838 0.231-1.333 0.231zM57.705 18.973c0.326 0 0.601-0.076 0.826-0.227 0.227-0.154 0.399-0.374 0.515-0.659 0.119-0.288 0.178-0.633 0.178-1.034 0-0.391-0.058-0.736-0.174-1.034s-0.287-0.53-0.511-0.697c-0.225-0.169-0.503-0.254-0.833-0.254-0.341 0-0.625 0.088-0.852 0.265-0.227 0.174-0.399 0.412-0.515 0.712-0.114 0.3-0.17 0.636-0.17 1.008 0 0.381 0.058 0.716 0.174 1.004s0.288 0.513 0.515 0.674c0.23 0.162 0.513 0.242 0.848 0.242zM64.368 20.117c-0.573 0-1.067-0.122-1.481-0.367-0.412-0.247-0.73-0.595-0.955-1.042-0.222-0.449-0.333-0.976-0.333-1.58 0-0.596 0.111-1.121 0.333-1.576 0.225-0.455 0.538-0.809 0.939-1.064 0.404-0.255 0.876-0.383 1.417-0.383 0.328 0 0.646 0.054 0.955 0.163s0.585 0.279 0.83 0.511c0.245 0.232 0.438 0.534 0.58 0.905 0.141 0.369 0.212 0.817 0.212 1.345v0.401h-4.625v-0.848h3.515c0-0.298-0.061-0.562-0.182-0.792-0.121-0.232-0.292-0.415-0.511-0.549-0.217-0.134-0.472-0.201-0.765-0.201-0.318 0-0.596 0.078-0.833 0.235-0.235 0.154-0.417 0.356-0.545 0.606-0.126 0.247-0.189 0.516-0.189 0.807v0.663c0 0.389 0.068 0.72 0.205 0.992 0.139 0.273 0.332 0.481 0.58 0.625 0.247 0.141 0.537 0.212 0.867 0.212 0.215 0 0.41-0.030 0.587-0.091 0.177-0.063 0.33-0.157 0.458-0.28s0.227-0.277 0.295-0.458l1.072 0.193c-0.086 0.316-0.24 0.592-0.462 0.83-0.22 0.235-0.496 0.418-0.83 0.549-0.331 0.129-0.708 0.193-1.133 0.193zM68.121 20v-5.818h1.095v0.924h0.061c0.106-0.313 0.293-0.559 0.561-0.739 0.27-0.182 0.576-0.273 0.917-0.273 0.071 0 0.154 0.003 0.25 0.008 0.099 0.005 0.175 0.011 0.231 0.019v1.083c-0.046-0.013-0.127-0.027-0.243-0.042-0.116-0.018-0.233-0.027-0.349-0.027-0.267 0-0.506 0.057-0.716 0.17-0.207 0.111-0.371 0.266-0.492 0.466-0.121 0.197-0.182 0.422-0.182 0.674v3.553h-1.133zM73.855 20.129c-0.369 0-0.702-0.068-1-0.205-0.298-0.139-0.534-0.34-0.708-0.602-0.172-0.263-0.257-0.585-0.257-0.966 0-0.328 0.063-0.598 0.189-0.811s0.297-0.38 0.511-0.504 0.454-0.217 0.719-0.28c0.265-0.063 0.535-0.111 0.811-0.144 0.349-0.040 0.631-0.073 0.849-0.098 0.217-0.028 0.375-0.072 0.473-0.133s0.148-0.159 0.148-0.295v-0.027c0-0.331-0.093-0.587-0.281-0.769-0.184-0.182-0.459-0.273-0.825-0.273-0.381 0-0.682 0.085-0.902 0.254-0.217 0.167-0.367 0.352-0.451 0.557l-1.064-0.242c0.126-0.354 0.31-0.639 0.553-0.856 0.245-0.22 0.527-0.379 0.845-0.477 0.318-0.101 0.653-0.152 1.004-0.152 0.232 0 0.479 0.028 0.739 0.083 0.263 0.053 0.507 0.152 0.735 0.295 0.23 0.144 0.418 0.35 0.565 0.617 0.146 0.265 0.219 0.61 0.219 1.034v3.864h-1.106v-0.795h-0.045c-0.073 0.146-0.183 0.29-0.329 0.432s-0.335 0.259-0.565 0.352c-0.23 0.093-0.505 0.14-0.826 0.14zM74.102 19.22c0.313 0 0.581-0.062 0.803-0.186 0.225-0.124 0.395-0.285 0.511-0.485 0.119-0.202 0.178-0.418 0.178-0.648v-0.75c-0.040 0.040-0.119 0.078-0.235 0.114-0.113 0.033-0.243 0.062-0.39 0.087-0.147 0.023-0.289 0.044-0.428 0.064-0.139 0.018-0.255 0.033-0.349 0.045-0.219 0.028-0.421 0.074-0.602 0.14-0.179 0.066-0.323 0.16-0.432 0.284-0.106 0.121-0.159 0.283-0.159 0.485 0 0.28 0.104 0.492 0.311 0.636 0.207 0.141 0.471 0.212 0.792 0.212zM80.951 14.182v0.909h-3.178v-0.909h3.178zM78.625 12.788h1.133v5.504c0 0.22 0.033 0.385 0.099 0.496 0.065 0.109 0.15 0.183 0.253 0.223 0.107 0.038 0.221 0.057 0.345 0.057 0.091 0 0.17-0.006 0.238-0.019s0.121-0.023 0.159-0.030l0.205 0.936c-0.066 0.025-0.159 0.051-0.281 0.076-0.121 0.028-0.273 0.043-0.454 0.045-0.298 0.005-0.576-0.048-0.833-0.159s-0.466-0.283-0.625-0.515c-0.159-0.232-0.239-0.524-0.239-0.875v-5.739zM84.592 20.117c-0.545 0-1.021-0.125-1.428-0.375s-0.722-0.6-0.947-1.049c-0.225-0.45-0.337-0.975-0.337-1.576 0-0.604 0.113-1.131 0.337-1.583s0.541-0.803 0.947-1.053c0.407-0.25 0.883-0.375 1.428-0.375s1.022 0.125 1.429 0.375c0.406 0.25 0.722 0.601 0.947 1.053s0.337 0.98 0.337 1.583c0 0.601-0.113 1.126-0.337 1.576s-0.541 0.799-0.947 1.049c-0.407 0.25-0.883 0.375-1.429 0.375zM84.596 19.167c0.353 0 0.647-0.093 0.879-0.28s0.404-0.436 0.515-0.746c0.114-0.311 0.171-0.653 0.171-1.026 0-0.371-0.057-0.712-0.171-1.023-0.111-0.313-0.283-0.564-0.515-0.754s-0.525-0.284-0.879-0.284c-0.356 0-0.651 0.095-0.886 0.284-0.233 0.189-0.405 0.441-0.519 0.754-0.111 0.311-0.167 0.651-0.167 1.023 0 0.374 0.056 0.716 0.167 1.026 0.114 0.311 0.287 0.559 0.519 0.746 0.235 0.187 0.53 0.28 0.886 0.28zM88.569 20v-5.818h1.095v0.924h0.061c0.106-0.313 0.293-0.559 0.561-0.739 0.27-0.182 0.575-0.273 0.917-0.273 0.071 0 0.154 0.003 0.25 0.008 0.099 0.005 0.175 0.011 0.231 0.019v1.083c-0.045-0.013-0.126-0.027-0.242-0.042-0.116-0.018-0.233-0.027-0.349-0.027-0.267 0-0.506 0.057-0.716 0.17-0.207 0.111-0.371 0.266-0.492 0.466-0.121 0.197-0.182 0.422-0.182 0.674v3.553h-1.133z"></path>
</symbol>
<symbol id="radio" viewBox="0 0 72 32">
<path fill="#f2f4f7" style="fill: var(--color1, #f2f4f7)" d="M16 0h40c8.837 0 16 7.163 16 16s-7.163 16-16 16h-40c-8.837 0-16-7.163-16-16s7.163-16 16-16z"></path>
<path fill="#101828" style="fill: var(--color3, #101828)" d="M17.833 11.417c0-0.111 0.044-0.216 0.122-0.295s0.184-0.122 0.295-0.122h5.833c0.111 0 0.216 0.044 0.295 0.122s0.122 0.184 0.122 0.295v0.833c0 0.111-0.044 0.216-0.122 0.295s-0.184 0.122-0.295 0.122h-5.833c-0.111 0-0.216-0.044-0.295-0.122s-0.122-0.184-0.122-0.295v-0.833zM12 19.333c0-0.663 0.263-1.299 0.732-1.768s1.105-0.732 1.768-0.732 1.299 0.263 1.768 0.732c0.469 0.469 0.732 1.105 0.732 1.768s-0.263 1.299-0.732 1.768c-0.469 0.469-1.105 0.732-1.768 0.732s-1.299-0.263-1.768-0.732c-0.469-0.469-0.732-1.105-0.732-1.768zM17.833 18.083c0-0.111 0.044-0.216 0.122-0.295s0.184-0.122 0.295-0.122h5.833c0.111 0 0.216 0.044 0.295 0.122s0.122 0.184 0.122 0.295v0.833c0 0.111-0.044 0.216-0.122 0.295s-0.184 0.122-0.295 0.122h-5.833c-0.111 0-0.216-0.044-0.295-0.122s-0.122-0.184-0.122-0.295v-0.833zM17.833 13.917c0-0.111 0.044-0.216 0.122-0.295s0.184-0.122 0.295-0.122h4.167c0.111 0 0.216 0.044 0.295 0.122s0.122 0.184 0.122 0.295-0.044 0.216-0.122 0.295c-0.078 0.078-0.184 0.122-0.295 0.122h-4.167c-0.111 0-0.216-0.044-0.295-0.122s-0.122-0.184-0.122-0.295zM17.833 20.583c0-0.111 0.044-0.216 0.122-0.295s0.184-0.122 0.295-0.122h4.167c0.111 0 0.216 0.044 0.295 0.122s0.122 0.184 0.122 0.295-0.044 0.216-0.122 0.295c-0.078 0.078-0.184 0.122-0.295 0.122h-4.167c-0.111 0-0.216-0.044-0.295-0.122s-0.122-0.184-0.122-0.295zM14.5 10.167c-0.328 0-0.653 0.065-0.957 0.19s-0.579 0.31-0.811 0.542c-0.232 0.232-0.416 0.508-0.542 0.811s-0.19 0.628-0.19 0.957 0.065 0.653 0.19 0.957c0.126 0.303 0.31 0.579 0.542 0.811s0.508 0.416 0.811 0.542c0.303 0.126 0.628 0.19 0.957 0.19 0.663 0 1.299-0.263 1.768-0.732s0.732-1.105 0.732-1.768-0.263-1.299-0.732-1.768c-0.469-0.469-1.105-0.732-1.768-0.732zM14.5 13.917c-0.332 0-0.649-0.132-0.884-0.366s-0.366-0.552-0.366-0.884 0.132-0.649 0.366-0.884c0.234-0.234 0.552-0.366 0.884-0.366s0.649 0.132 0.884 0.366c0.234 0.234 0.366 0.552 0.366 0.884s-0.132 0.649-0.366 0.884c-0.234 0.234-0.552 0.366-0.884 0.366z"></path>
<path fill="#101828" style="fill: var(--color3, #101828)" d="M31.831 20v-7.758h2.765c0.601 0 1.1 0.104 1.496 0.311 0.399 0.207 0.697 0.494 0.894 0.86 0.197 0.364 0.295 0.784 0.295 1.261 0 0.475-0.1 0.893-0.299 1.254-0.197 0.359-0.495 0.638-0.894 0.837-0.396 0.2-0.895 0.299-1.496 0.299h-2.095v-1.008h1.989c0.379 0 0.687-0.054 0.924-0.163 0.24-0.109 0.415-0.266 0.526-0.473s0.167-0.456 0.167-0.746c0-0.293-0.057-0.547-0.17-0.761-0.111-0.215-0.287-0.379-0.527-0.492-0.237-0.116-0.549-0.174-0.936-0.174h-1.47v6.754h-1.17zM35.661 16.5l1.917 3.5h-1.333l-1.879-3.5h1.295zM40.309 20.129c-0.369 0-0.702-0.068-1-0.205-0.298-0.139-0.534-0.34-0.708-0.602-0.172-0.263-0.258-0.585-0.258-0.966 0-0.328 0.063-0.598 0.189-0.811s0.297-0.38 0.511-0.504c0.215-0.124 0.455-0.217 0.72-0.28s0.535-0.111 0.811-0.144c0.348-0.040 0.631-0.073 0.848-0.098 0.217-0.028 0.375-0.072 0.474-0.133s0.148-0.159 0.148-0.295v-0.027c0-0.331-0.093-0.587-0.28-0.769-0.184-0.182-0.46-0.273-0.826-0.273-0.381 0-0.682 0.085-0.901 0.254-0.217 0.167-0.367 0.352-0.451 0.557l-1.064-0.242c0.126-0.354 0.311-0.639 0.553-0.856 0.245-0.22 0.527-0.379 0.845-0.477 0.318-0.101 0.653-0.152 1.004-0.152 0.232 0 0.479 0.028 0.739 0.083 0.263 0.053 0.508 0.152 0.735 0.295 0.23 0.144 0.418 0.35 0.564 0.617 0.146 0.265 0.22 0.61 0.22 1.034v3.864h-1.106v-0.795h-0.045c-0.073 0.146-0.183 0.29-0.33 0.432s-0.335 0.259-0.564 0.352c-0.23 0.093-0.505 0.14-0.826 0.14zM40.555 19.22c0.313 0 0.581-0.062 0.803-0.186 0.225-0.124 0.395-0.285 0.511-0.485 0.119-0.202 0.178-0.418 0.178-0.648v-0.75c-0.040 0.040-0.119 0.078-0.235 0.114-0.114 0.033-0.244 0.062-0.39 0.087-0.146 0.023-0.289 0.044-0.428 0.064-0.139 0.018-0.255 0.033-0.348 0.045-0.22 0.028-0.42 0.074-0.602 0.14-0.179 0.066-0.323 0.16-0.432 0.284-0.106 0.121-0.159 0.283-0.159 0.485 0 0.28 0.104 0.492 0.311 0.636 0.207 0.141 0.471 0.212 0.792 0.212zM46.866 20.114c-0.47 0-0.889-0.12-1.258-0.36-0.366-0.242-0.654-0.587-0.864-1.034-0.207-0.449-0.311-0.989-0.311-1.617s0.105-1.167 0.314-1.614c0.212-0.447 0.503-0.789 0.871-1.027s0.787-0.356 1.254-0.356c0.361 0 0.652 0.061 0.871 0.182 0.222 0.119 0.394 0.258 0.515 0.417 0.124 0.159 0.22 0.299 0.288 0.42h0.068v-2.883h1.133v7.758h-1.106v-0.905h-0.095c-0.068 0.124-0.167 0.265-0.295 0.424-0.126 0.159-0.301 0.298-0.523 0.417s-0.51 0.178-0.864 0.178zM47.116 19.148c0.326 0 0.601-0.086 0.826-0.258 0.227-0.174 0.399-0.415 0.515-0.723 0.119-0.308 0.178-0.667 0.178-1.076 0-0.404-0.058-0.758-0.174-1.061s-0.287-0.539-0.511-0.708c-0.225-0.169-0.503-0.254-0.833-0.254-0.341 0-0.625 0.088-0.852 0.265s-0.399 0.418-0.515 0.723c-0.114 0.306-0.17 0.65-0.17 1.034 0 0.389 0.058 0.739 0.174 1.049s0.288 0.557 0.515 0.739c0.23 0.179 0.513 0.269 0.848 0.269zM51.366 20v-5.818h1.133v5.818h-1.133zM51.937 13.284c-0.197 0-0.366-0.066-0.508-0.197-0.139-0.134-0.208-0.293-0.208-0.477 0-0.187 0.069-0.346 0.208-0.477 0.141-0.134 0.311-0.201 0.508-0.201s0.365 0.067 0.504 0.201c0.141 0.131 0.212 0.29 0.212 0.477 0 0.184-0.071 0.343-0.212 0.477-0.139 0.131-0.307 0.197-0.504 0.197zM56.473 20.117c-0.545 0-1.021-0.125-1.428-0.375s-0.722-0.6-0.947-1.049c-0.225-0.45-0.337-0.975-0.337-1.576 0-0.604 0.112-1.131 0.337-1.583s0.54-0.803 0.947-1.053c0.407-0.25 0.883-0.375 1.428-0.375s1.021 0.125 1.428 0.375c0.407 0.25 0.722 0.601 0.947 1.053s0.337 0.98 0.337 1.583c0 0.601-0.112 1.126-0.337 1.576s-0.54 0.799-0.947 1.049c-0.407 0.25-0.883 0.375-1.428 0.375zM56.476 19.167c0.354 0 0.646-0.093 0.879-0.28s0.404-0.436 0.515-0.746c0.114-0.311 0.17-0.653 0.17-1.026 0-0.371-0.057-0.712-0.17-1.023-0.111-0.313-0.283-0.564-0.515-0.754s-0.525-0.284-0.879-0.284c-0.356 0-0.652 0.095-0.886 0.284-0.232 0.189-0.405 0.441-0.519 0.754-0.111 0.311-0.167 0.651-0.167 1.023 0 0.374 0.056 0.716 0.167 1.026 0.114 0.311 0.287 0.559 0.519 0.746 0.235 0.187 0.53 0.28 0.886 0.28z"></path>
</symbol>
<symbol id="TV" viewBox="0 0 57 32">
<path fill="#f2f4f7" style="fill: var(--color1, #f2f4f7)" d="M16 0h25.333c8.837 0 16 7.163 16 16s-7.163 16-16 16h-25.333c-8.837 0-16-7.163-16-16s7.163-16 16-16z"></path>
<path fill="#101828" style="fill: var(--color3, #101828)" d="M12 12.667c0 0 0-1.667 1.667-1.667h10c0 0 1.667 0 1.667 1.667v5c0 0 0 1.667-1.667 1.667h-3.333c0 0.556 0.069 0.972 0.208 1.25h0.625c0.111 0 0.216 0.044 0.295 0.122s0.122 0.184 0.122 0.295-0.044 0.216-0.122 0.295c-0.078 0.078-0.184 0.122-0.295 0.122h-5c-0.111 0-0.216-0.044-0.295-0.122s-0.122-0.184-0.122-0.295 0.044-0.216 0.122-0.295c0.078-0.078 0.184-0.122 0.295-0.122h0.625c0.139-0.278 0.208-0.694 0.208-1.25h-3.333c0 0-1.667 0-1.667-1.667v-5zM13.165 11.954c-0.091 0.064-0.165 0.151-0.212 0.252-0.070 0.147-0.111 0.306-0.12 0.469v4.992c0 0.271 0.065 0.418 0.121 0.502 0.058 0.087 0.142 0.157 0.252 0.212 0.141 0.067 0.293 0.108 0.448 0.119l0.021 0.001h9.992c0.271 0 0.418-0.065 0.502-0.121 0.091-0.064 0.165-0.151 0.212-0.252 0.067-0.141 0.108-0.293 0.119-0.448l0.001-0.021v-4.992c0-0.271-0.065-0.418-0.121-0.502-0.064-0.091-0.151-0.165-0.252-0.212-0.147-0.070-0.306-0.111-0.469-0.12h-9.992c-0.271 0-0.418 0.065-0.502 0.121z"></path>
<path fill="#101828" style="fill: var(--color3, #101828)" d="M31.261 13.25v-1.008h6.004v1.008h-2.42v6.75h-1.167v-6.75h-2.417zM39.27 12.242l2.159 6.318h0.087l2.159-6.318h1.265l-2.792 7.758h-1.352l-2.792-7.758h1.265z"></path>
</symbol>
<symbol id="kitchen" viewBox="0 0 82 32">
<path fill="#f2f4f7" style="fill: var(--color1, #f2f4f7)" d="M16 0h50c8.837 0 16 7.163 16 16s-7.163 16-16 16h-50c-8.837 0-16-7.163-16-16s7.163-16 16-16z"></path>
<path fill="#101828" style="fill: var(--color3, #101828)" d="M12.417 14.333c-0.062 0-0.124 0.014-0.18 0.041s-0.106 0.066-0.145 0.115c-0.039 0.049-0.067 0.105-0.081 0.166s-0.015 0.124-0.001 0.185l1.377 6.195c0.103 0.463 0.36 0.877 0.73 1.173s0.829 0.458 1.303 0.458h4.827c0.474-0 0.934-0.162 1.303-0.458s0.627-0.71 0.73-1.173l0.109-0.492c0.637 0.119 1.296-0.014 1.837-0.371s0.922-0.911 1.063-1.544 0.030-1.296-0.309-1.849c-0.339-0.553-0.88-0.952-1.508-1.114l0.184-0.825c0.013-0.061 0.013-0.124-0.001-0.185s-0.042-0.117-0.081-0.166c-0.039-0.049-0.088-0.088-0.145-0.115s-0.118-0.041-0.18-0.041h-10.833zM22.833 19.75c-0.088 0-0.176-0.007-0.263-0.021l0.722-3.248c0.385 0.112 0.718 0.359 0.936 0.695s0.307 0.741 0.252 1.138c-0.056 0.397-0.253 0.761-0.555 1.025s-0.69 0.409-1.091 0.411zM14.2 20.854l-1.264-5.687h9.795l-1.264 5.687c-0.062 0.278-0.216 0.526-0.438 0.704s-0.498 0.275-0.782 0.275h-4.827c-0.284-0-0.56-0.097-0.782-0.275s-0.376-0.426-0.438-0.704z"></path>
<path fill="#101828" style="fill: var(--color3, #101828)" d="M15.667 10l-0.003 0.003-0.012 0.016c-0.061 0.083-0.117 0.17-0.17 0.258-0.045 0.071-0.084 0.145-0.117 0.223-0.022 0.050-0.028 0.077-0.031 0.086v0.003c0.010 0.074 0.036 0.144 0.076 0.207 0.063 0.111 0.148 0.227 0.257 0.371l0.008 0.010c0.098 0.132 0.217 0.289 0.308 0.452 0.093 0.167 0.183 0.379 0.183 0.621 0 0.157-0.054 0.307-0.099 0.412-0.048 0.112-0.104 0.22-0.168 0.323-0.065 0.109-0.136 0.215-0.211 0.318l-0.015 0.021-0.004 0.007-0.002 0.002c-0.066 0.089-0.165 0.147-0.274 0.163s-0.221-0.013-0.309-0.079c-0.088-0.066-0.147-0.165-0.163-0.274s0.013-0.221 0.079-0.309l0.014-0.019c0.061-0.083 0.117-0.17 0.17-0.258 0.045-0.071 0.084-0.145 0.117-0.222 0.022-0.050 0.028-0.077 0.031-0.086-0.009-0.075-0.035-0.147-0.075-0.21-0.077-0.129-0.163-0.253-0.257-0.371l-0.008-0.010c-0.113-0.144-0.216-0.295-0.308-0.453-0.114-0.188-0.177-0.402-0.183-0.621 0-0.157 0.054-0.307 0.099-0.412 0.049-0.115 0.112-0.228 0.168-0.323 0.066-0.109 0.136-0.215 0.211-0.318l0.021-0.029c0.066-0.089 0.165-0.147 0.274-0.163s0.221 0.013 0.309 0.079c0.089 0.066 0.147 0.165 0.163 0.274s-0.013 0.221-0.079 0.309zM18.167 10l-0.003 0.003-0.012 0.016c-0.061 0.083-0.117 0.17-0.17 0.258-0.045 0.071-0.084 0.145-0.118 0.223-0.022 0.050-0.028 0.077-0.031 0.086v0.003c0.010 0.074 0.036 0.144 0.076 0.207 0.063 0.111 0.148 0.227 0.257 0.371l0.008 0.010c0.098 0.132 0.217 0.289 0.308 0.452 0.093 0.167 0.183 0.379 0.183 0.621 0 0.157-0.054 0.307-0.099 0.412-0.048 0.112-0.104 0.22-0.168 0.323-0.065 0.109-0.136 0.215-0.211 0.318l-0.015 0.021-0.004 0.007-0.002 0.002c-0.066 0.089-0.165 0.147-0.274 0.163s-0.221-0.013-0.309-0.079c-0.089-0.066-0.147-0.165-0.163-0.274s0.013-0.221 0.079-0.309l0.003-0.003 0.012-0.016c0.061-0.083 0.117-0.17 0.17-0.258 0.045-0.071 0.084-0.145 0.118-0.222 0.022-0.050 0.028-0.077 0.031-0.086-0.009-0.075-0.035-0.147-0.075-0.21-0.077-0.129-0.163-0.253-0.258-0.371l-0.008-0.010c-0.113-0.144-0.216-0.295-0.308-0.453-0.114-0.188-0.177-0.402-0.183-0.621 0-0.157 0.054-0.307 0.099-0.412 0.049-0.115 0.112-0.228 0.168-0.323 0.066-0.109 0.137-0.215 0.211-0.318l0.021-0.029c0.066-0.089 0.165-0.147 0.274-0.163s0.221 0.013 0.309 0.079c0.089 0.066 0.147 0.165 0.163 0.274s-0.013 0.221-0.079 0.309zM20.667 10l-0.002 0.003-0.012 0.016c-0.061 0.083-0.117 0.17-0.17 0.258-0.045 0.071-0.084 0.145-0.118 0.223-0.022 0.050-0.028 0.077-0.031 0.086v0.003c0.010 0.074 0.035 0.144 0.076 0.207 0.062 0.111 0.148 0.227 0.257 0.371l0.008 0.010c0.098 0.132 0.217 0.289 0.308 0.452 0.093 0.167 0.183 0.379 0.183 0.621 0 0.157-0.054 0.307-0.099 0.412-0.048 0.112-0.104 0.22-0.168 0.323-0.065 0.109-0.135 0.215-0.21 0.318l-0.016 0.021-0.004 0.007-0.002 0.002c-0.066 0.089-0.165 0.147-0.274 0.163s-0.221-0.013-0.309-0.079c-0.089-0.066-0.147-0.165-0.163-0.274s0.013-0.221 0.079-0.309l0.002-0.003 0.012-0.016c0.061-0.083 0.117-0.17 0.17-0.258 0.045-0.071 0.084-0.145 0.118-0.222 0.022-0.050 0.028-0.077 0.031-0.086-0.009-0.075-0.034-0.147-0.075-0.21-0.077-0.129-0.163-0.253-0.258-0.371l-0.008-0.010c-0.113-0.144-0.216-0.295-0.308-0.453-0.114-0.188-0.177-0.402-0.183-0.621 0-0.157 0.054-0.307 0.099-0.412 0.049-0.115 0.112-0.228 0.168-0.323 0.066-0.109 0.137-0.215 0.211-0.318l0.021-0.029c0.066-0.089 0.165-0.147 0.274-0.163s0.221 0.013 0.309 0.079c0.089 0.066 0.147 0.165 0.163 0.274s-0.013 0.221-0.079 0.309z"></path>
<path fill="#101828" style="fill: var(--color3, #101828)" d="M31.628 20v-7.758h1.17v3.705h0.095l3.254-3.705h1.473l-3.129 3.492 3.14 4.265h-1.409l-2.508-3.466-0.917 1.053v2.413h-1.17zM38.985 20v-5.818h1.133v5.818h-1.133zM39.557 13.284c-0.197 0-0.366-0.066-0.508-0.197-0.139-0.134-0.208-0.293-0.208-0.477 0-0.187 0.069-0.346 0.208-0.477 0.141-0.134 0.311-0.201 0.508-0.201s0.365 0.067 0.504 0.201c0.141 0.131 0.212 0.29 0.212 0.477 0 0.184-0.071 0.343-0.212 0.477-0.139 0.131-0.307 0.197-0.504 0.197zM44.357 14.182v0.909h-3.178v-0.909h3.178zM42.032 12.788h1.133v5.504c0 0.22 0.033 0.385 0.099 0.496 0.066 0.109 0.15 0.183 0.254 0.223 0.106 0.038 0.221 0.057 0.345 0.057 0.091 0 0.17-0.006 0.239-0.019s0.121-0.023 0.159-0.030l0.205 0.936c-0.066 0.025-0.159 0.051-0.28 0.076-0.121 0.028-0.273 0.043-0.455 0.045-0.298 0.005-0.576-0.048-0.833-0.159s-0.466-0.283-0.625-0.515c-0.159-0.232-0.239-0.524-0.239-0.875v-5.739zM47.999 20.117c-0.563 0-1.048-0.128-1.455-0.383-0.404-0.258-0.715-0.612-0.932-1.064s-0.326-0.97-0.326-1.553c0-0.591 0.111-1.112 0.333-1.564 0.222-0.455 0.535-0.809 0.939-1.064s0.88-0.383 1.428-0.383c0.442 0 0.836 0.082 1.182 0.246 0.346 0.162 0.625 0.389 0.837 0.682 0.215 0.293 0.342 0.635 0.383 1.027h-1.102c-0.061-0.273-0.2-0.508-0.417-0.705-0.215-0.197-0.503-0.295-0.864-0.295-0.316 0-0.592 0.083-0.83 0.25-0.235 0.164-0.418 0.399-0.549 0.705-0.131 0.303-0.197 0.662-0.197 1.076 0 0.424 0.064 0.79 0.193 1.098s0.311 0.547 0.545 0.716c0.237 0.169 0.516 0.254 0.837 0.254 0.215 0 0.409-0.039 0.583-0.117 0.177-0.081 0.325-0.196 0.443-0.345 0.121-0.149 0.206-0.328 0.254-0.538h1.102c-0.040 0.376-0.163 0.712-0.367 1.008s-0.479 0.528-0.822 0.697c-0.341 0.169-0.741 0.254-1.201 0.254zM52.732 16.545v3.455h-1.133v-7.758h1.117v2.886h0.072c0.136-0.313 0.345-0.562 0.625-0.746s0.646-0.277 1.099-0.277c0.399 0 0.747 0.082 1.045 0.246 0.3 0.164 0.533 0.409 0.697 0.735 0.167 0.323 0.25 0.727 0.25 1.212v3.701h-1.133v-3.564c0-0.427-0.11-0.758-0.33-0.992-0.22-0.237-0.525-0.356-0.917-0.356-0.268 0-0.508 0.057-0.72 0.17-0.21 0.114-0.375 0.28-0.496 0.5-0.119 0.217-0.178 0.48-0.178 0.788zM60.524 20.117c-0.573 0-1.067-0.122-1.481-0.367-0.412-0.247-0.73-0.595-0.955-1.042-0.222-0.449-0.333-0.976-0.333-1.58 0-0.596 0.111-1.121 0.333-1.576 0.225-0.455 0.538-0.809 0.939-1.064 0.404-0.255 0.876-0.383 1.417-0.383 0.328 0 0.646 0.054 0.955 0.163s0.585 0.279 0.83 0.511c0.245 0.232 0.438 0.534 0.58 0.905 0.141 0.369 0.212 0.817 0.212 1.345v0.401h-4.625v-0.848h3.515c0-0.298-0.061-0.562-0.182-0.792-0.121-0.232-0.292-0.415-0.511-0.549-0.217-0.134-0.472-0.201-0.765-0.201-0.318 0-0.596 0.078-0.833 0.235-0.235 0.154-0.417 0.356-0.545 0.606-0.126 0.247-0.189 0.516-0.189 0.807v0.663c0 0.389 0.068 0.72 0.205 0.992 0.139 0.273 0.332 0.481 0.58 0.625 0.247 0.141 0.537 0.212 0.867 0.212 0.215 0 0.41-0.030 0.587-0.091 0.177-0.063 0.33-0.157 0.458-0.28s0.227-0.277 0.295-0.458l1.072 0.193c-0.086 0.316-0.24 0.592-0.462 0.83-0.22 0.235-0.496 0.418-0.83 0.549-0.331 0.129-0.708 0.193-1.133 0.193zM65.41 16.545v3.455h-1.133v-5.818h1.087v0.947h0.072c0.134-0.308 0.343-0.556 0.629-0.742 0.288-0.187 0.65-0.28 1.087-0.28 0.397 0 0.744 0.083 1.041 0.25 0.298 0.164 0.529 0.409 0.693 0.735s0.247 0.729 0.247 1.208v3.701h-1.133v-3.564c0-0.422-0.11-0.751-0.33-0.989-0.219-0.24-0.521-0.36-0.905-0.36-0.262 0-0.496 0.057-0.7 0.17-0.202 0.114-0.362 0.28-0.481 0.5-0.116 0.217-0.174 0.48-0.174 0.788z"></path>
</symbol>
<symbol id="bathroom" viewBox="0 0 93 32">
<path fill="#f2f4f7" style="fill: var(--color1, #f2f4f7)" d="M16 0h60.667c8.837 0 16 7.163 16 16s-7.163 16-16 16h-60.667c-8.837 0-16-7.163-16-16s7.163-16 16-16z"></path>
<path fill="#101828" style="fill: var(--color3, #101828)" d="M15.333 21.625c0 0.124-0.037 0.244-0.105 0.347s-0.166 0.183-0.28 0.23c-0.114 0.047-0.24 0.060-0.361 0.036s-0.233-0.084-0.32-0.171c-0.087-0.087-0.147-0.199-0.171-0.32s-0.012-0.247 0.036-0.361c0.047-0.114 0.127-0.212 0.23-0.28s0.224-0.105 0.347-0.105c0.166 0 0.325 0.066 0.442 0.183s0.183 0.276 0.183 0.442zM16.375 19.333c-0.124 0-0.244 0.037-0.347 0.105s-0.183 0.166-0.23 0.28c-0.047 0.114-0.060 0.24-0.036 0.361s0.084 0.233 0.171 0.32c0.087 0.087 0.199 0.147 0.32 0.171s0.247 0.012 0.361-0.036c0.114-0.047 0.212-0.127 0.28-0.23s0.105-0.224 0.105-0.347c0-0.166-0.066-0.325-0.183-0.442s-0.276-0.183-0.442-0.183zM13.042 19.333c-0.124 0-0.244 0.037-0.347 0.105s-0.183 0.166-0.23 0.28c-0.047 0.114-0.060 0.24-0.036 0.361s0.084 0.233 0.171 0.32c0.087 0.087 0.199 0.147 0.32 0.171s0.247 0.012 0.361-0.036c0.114-0.047 0.212-0.127 0.28-0.23s0.105-0.224 0.105-0.347c0-0.166-0.066-0.325-0.183-0.442s-0.276-0.183-0.442-0.183zM14.708 17.667c-0.124 0-0.244 0.037-0.347 0.105s-0.183 0.166-0.23 0.28c-0.047 0.114-0.060 0.24-0.036 0.361s0.084 0.233 0.171 0.32c0.087 0.087 0.199 0.147 0.32 0.171s0.247 0.012 0.361-0.036c0.114-0.047 0.212-0.127 0.28-0.23s0.105-0.224 0.105-0.347c0-0.166-0.066-0.325-0.183-0.442s-0.276-0.183-0.442-0.183zM25.333 11.417c0 0.111-0.044 0.216-0.122 0.295s-0.184 0.122-0.295 0.122h-1.494l-1.451 1.451-1.128 6.604c-0.025 0.151-0.092 0.292-0.192 0.407s-0.23 0.201-0.376 0.248c-0.146 0.047-0.301 0.052-0.45 0.016s-0.285-0.112-0.393-0.221l-5.104-5.104c-0.108-0.108-0.185-0.244-0.221-0.393s-0.030-0.305 0.016-0.451c0.047-0.146 0.133-0.276 0.249-0.376s0.257-0.166 0.408-0.191l6.601-1.129 1.573-1.573c0.039-0.039 0.085-0.069 0.135-0.090s0.105-0.032 0.16-0.032h1.667c0.111 0 0.216 0.044 0.295 0.122s0.122 0.184 0.122 0.295zM21.073 13.593l-6.157 1.053 5.104 5.104 1.053-6.157z"></path>
<path fill="#101828" style="fill: var(--color3, #101828)" d="M31.654 20v-7.758h2.841c0.551 0 1.006 0.091 1.367 0.273 0.361 0.179 0.631 0.423 0.811 0.731 0.179 0.306 0.269 0.65 0.269 1.034 0 0.323-0.059 0.596-0.178 0.818-0.119 0.22-0.278 0.396-0.477 0.53-0.197 0.131-0.414 0.227-0.652 0.288v0.076c0.258 0.013 0.509 0.096 0.754 0.25 0.247 0.152 0.452 0.367 0.614 0.648s0.242 0.621 0.242 1.023c0 0.396-0.093 0.753-0.28 1.068-0.184 0.313-0.47 0.562-0.856 0.746-0.386 0.182-0.88 0.273-1.481 0.273h-2.974zM32.825 18.996h1.689c0.561 0 0.962-0.109 1.205-0.326s0.364-0.489 0.364-0.814c0-0.245-0.062-0.47-0.186-0.674s-0.301-0.367-0.53-0.489c-0.227-0.121-0.497-0.182-0.811-0.182h-1.731v2.485zM32.825 15.598h1.568c0.263 0 0.499-0.050 0.708-0.151 0.212-0.101 0.38-0.242 0.504-0.424 0.126-0.184 0.189-0.402 0.189-0.652 0-0.321-0.112-0.59-0.337-0.807s-0.569-0.326-1.034-0.326h-1.598v2.36zM40.236 20.129c-0.369 0-0.702-0.068-1-0.205-0.298-0.139-0.534-0.34-0.708-0.602-0.172-0.263-0.258-0.585-0.258-0.966 0-0.328 0.063-0.598 0.189-0.811s0.297-0.38 0.511-0.504c0.215-0.124 0.455-0.217 0.72-0.28s0.535-0.111 0.811-0.144c0.348-0.040 0.631-0.073 0.848-0.098 0.217-0.028 0.375-0.072 0.474-0.133s0.148-0.159 0.148-0.295v-0.027c0-0.331-0.093-0.587-0.28-0.769-0.184-0.182-0.46-0.273-0.826-0.273-0.381 0-0.682 0.085-0.902 0.254-0.217 0.167-0.367 0.352-0.451 0.557l-1.064-0.242c0.126-0.354 0.311-0.639 0.553-0.856 0.245-0.22 0.527-0.379 0.845-0.477 0.318-0.101 0.653-0.152 1.004-0.152 0.232 0 0.479 0.028 0.739 0.083 0.263 0.053 0.508 0.152 0.735 0.295 0.23 0.144 0.418 0.35 0.564 0.617 0.146 0.265 0.22 0.61 0.22 1.034v3.864h-1.106v-0.795h-0.045c-0.073 0.146-0.183 0.29-0.33 0.432s-0.335 0.259-0.564 0.352c-0.23 0.093-0.505 0.14-0.826 0.14zM40.482 19.22c0.313 0 0.581-0.062 0.803-0.186 0.225-0.124 0.395-0.285 0.511-0.485 0.119-0.202 0.178-0.418 0.178-0.648v-0.75c-0.040 0.040-0.119 0.078-0.235 0.114-0.114 0.033-0.244 0.062-0.39 0.087-0.146 0.023-0.289 0.044-0.428 0.064-0.139 0.018-0.255 0.033-0.348 0.045-0.22 0.028-0.42 0.074-0.602 0.14-0.179 0.066-0.323 0.16-0.432 0.284-0.106 0.121-0.159 0.283-0.159 0.485 0 0.28 0.104 0.492 0.311 0.636 0.207 0.141 0.471 0.212 0.792 0.212zM47.331 14.182v0.909h-3.178v-0.909h3.178zM45.006 12.788h1.133v5.504c0 0.22 0.033 0.385 0.098 0.496 0.066 0.109 0.15 0.183 0.254 0.223 0.106 0.038 0.221 0.057 0.345 0.057 0.091 0 0.17-0.006 0.239-0.019s0.121-0.023 0.159-0.030l0.205 0.936c-0.066 0.025-0.159 0.051-0.28 0.076-0.121 0.028-0.273 0.043-0.455 0.045-0.298 0.005-0.576-0.048-0.833-0.159s-0.466-0.283-0.625-0.515c-0.159-0.232-0.239-0.524-0.239-0.875v-5.739zM49.842 16.545v3.455h-1.133v-7.758h1.117v2.886h0.072c0.136-0.313 0.345-0.562 0.625-0.746s0.646-0.277 1.098-0.277c0.399 0 0.748 0.082 1.045 0.246 0.301 0.164 0.533 0.409 0.697 0.735 0.167 0.323 0.25 0.727 0.25 1.212v3.701h-1.133v-3.564c0-0.427-0.11-0.758-0.33-0.992-0.22-0.237-0.525-0.356-0.917-0.356-0.268 0-0.508 0.057-0.72 0.17-0.21 0.114-0.375 0.28-0.496 0.5-0.119 0.217-0.178 0.48-0.178 0.788zM55.126 20v-5.818h1.095v0.924h0.061c0.106-0.313 0.293-0.559 0.561-0.739 0.27-0.182 0.576-0.273 0.917-0.273 0.071 0 0.154 0.003 0.25 0.008 0.098 0.005 0.175 0.011 0.231 0.019v1.083c-0.045-0.013-0.126-0.027-0.242-0.042-0.116-0.018-0.232-0.027-0.348-0.027-0.268 0-0.506 0.057-0.716 0.17-0.207 0.111-0.371 0.266-0.492 0.466-0.121 0.197-0.182 0.422-0.182 0.674v3.553h-1.133zM61.462 20.117c-0.545 0-1.021-0.125-1.428-0.375s-0.722-0.6-0.947-1.049c-0.225-0.45-0.337-0.975-0.337-1.576 0-0.604 0.112-1.131 0.337-1.583s0.54-0.803 0.947-1.053c0.407-0.25 0.883-0.375 1.428-0.375s1.021 0.125 1.428 0.375c0.407 0.25 0.722 0.601 0.947 1.053s0.337 0.98 0.337 1.583c0 0.601-0.112 1.126-0.337 1.576s-0.54 0.799-0.947 1.049c-0.407 0.25-0.883 0.375-1.428 0.375zM61.466 19.167c0.354 0 0.646-0.093 0.879-0.28s0.404-0.436 0.515-0.746c0.114-0.311 0.17-0.653 0.17-1.026 0-0.371-0.057-0.712-0.17-1.023-0.111-0.313-0.283-0.564-0.515-0.754s-0.525-0.284-0.879-0.284c-0.356 0-0.652 0.095-0.886 0.284-0.232 0.189-0.405 0.441-0.519 0.754-0.111 0.311-0.167 0.651-0.167 1.023 0 0.374 0.056 0.716 0.167 1.026 0.114 0.311 0.287 0.559 0.519 0.746 0.235 0.187 0.53 0.28 0.886 0.28zM67.889 20.117c-0.545 0-1.021-0.125-1.428-0.375s-0.722-0.6-0.947-1.049c-0.225-0.45-0.337-0.975-0.337-1.576 0-0.604 0.112-1.131 0.337-1.583s0.54-0.803 0.947-1.053c0.407-0.25 0.883-0.375 1.428-0.375s1.021 0.125 1.428 0.375c0.407 0.25 0.722 0.601 0.947 1.053s0.337 0.98 0.337 1.583c0 0.601-0.113 1.126-0.337 1.576s-0.54 0.799-0.947 1.049-0.883 0.375-1.428 0.375zM67.893 19.167c0.354 0 0.647-0.093 0.879-0.28s0.404-0.436 0.515-0.746c0.114-0.311 0.171-0.653 0.171-1.026 0-0.371-0.057-0.712-0.171-1.023-0.111-0.313-0.283-0.564-0.515-0.754s-0.525-0.284-0.879-0.284c-0.356 0-0.651 0.095-0.886 0.284-0.233 0.189-0.405 0.441-0.519 0.754-0.111 0.311-0.167 0.651-0.167 1.023 0 0.374 0.056 0.716 0.167 1.026 0.114 0.311 0.286 0.559 0.519 0.746 0.235 0.187 0.53 0.28 0.886 0.28zM71.865 20v-5.818h1.087v0.947h0.072c0.121-0.321 0.319-0.571 0.595-0.75 0.275-0.182 0.605-0.273 0.989-0.273 0.389 0 0.715 0.091 0.977 0.273 0.265 0.182 0.461 0.432 0.587 0.75h0.060c0.139-0.311 0.36-0.558 0.663-0.742 0.303-0.187 0.664-0.28 1.083-0.28 0.527 0 0.958 0.165 1.291 0.496 0.336 0.331 0.504 0.83 0.504 1.496v3.902h-1.133v-3.795c0-0.394-0.107-0.679-0.322-0.856s-0.471-0.265-0.769-0.265c-0.369 0-0.655 0.114-0.86 0.341-0.205 0.225-0.307 0.514-0.307 0.867v3.708h-1.129v-3.867c0-0.316-0.099-0.569-0.296-0.761s-0.453-0.288-0.769-0.288c-0.215 0-0.413 0.057-0.595 0.17-0.179 0.111-0.325 0.266-0.436 0.466-0.108 0.2-0.163 0.431-0.163 0.693v3.587h-1.133z"></path>
</symbol>
<symbol id="AC" viewBox="0 0 58 32">
<path fill="#f2f4f7" style="fill: var(--color1, #f2f4f7)" d="M16 0h26c8.837 0 16 7.163 16 16s-7.163 16-16 16h-26c-8.837 0-16-7.163-16-16s7.163-16 16-16z"></path>
<path fill="#101828" style="fill: var(--color3, #101828)" d="M22.417 11c-0.553 0-1.082 0.219-1.473 0.61s-0.61 0.921-0.61 1.473c0 0.111-0.044 0.216-0.122 0.295s-0.184 0.122-0.295 0.122-0.216-0.044-0.295-0.122c-0.078-0.078-0.122-0.184-0.122-0.295 0-0.577 0.171-1.141 0.492-1.62s0.776-0.853 1.309-1.074c0.533-0.221 1.119-0.278 1.685-0.166s1.085 0.39 1.493 0.798c0.408 0.408 0.686 0.928 0.798 1.493s0.055 1.152-0.166 1.685c-0.221 0.533-0.595 0.989-1.074 1.309s-1.044 0.492-1.62 0.492h-10c-0.111 0-0.216-0.044-0.295-0.122s-0.122-0.184-0.122-0.295 0.044-0.216 0.122-0.295c0.078-0.078 0.184-0.122 0.295-0.122h10c0.553 0 1.082-0.219 1.473-0.61s0.61-0.921 0.61-1.473-0.219-1.082-0.61-1.473c-0.391-0.391-0.921-0.61-1.473-0.61zM16.583 11.833c-0.221 0-0.433 0.088-0.589 0.244s-0.244 0.368-0.244 0.589c0 0.111-0.044 0.216-0.122 0.295s-0.184 0.122-0.295 0.122-0.216-0.044-0.295-0.122c-0.078-0.078-0.122-0.184-0.122-0.295 0-0.33 0.098-0.652 0.281-0.926s0.443-0.488 0.748-0.614c0.305-0.126 0.64-0.159 0.963-0.095s0.62 0.223 0.853 0.456c0.233 0.233 0.392 0.53 0.456 0.853s0.031 0.658-0.095 0.963-0.34 0.565-0.614 0.748c-0.274 0.183-0.596 0.281-0.926 0.281h-4.167c-0.111 0-0.216-0.044-0.295-0.122s-0.122-0.184-0.122-0.295 0.044-0.216 0.122-0.295c0.078-0.078 0.184-0.122 0.295-0.122h4.167c0.221 0 0.433-0.088 0.589-0.244s0.244-0.368 0.244-0.589c0-0.221-0.088-0.433-0.244-0.589s-0.368-0.244-0.589-0.244zM12 17.25c0-0.111 0.044-0.216 0.122-0.295s0.184-0.122 0.295-0.122h8.368c0.494 0 0.978 0.147 1.389 0.421s0.732 0.665 0.921 1.122c0.189 0.457 0.239 0.96 0.142 1.444s-0.335 0.93-0.684 1.28c-0.35 0.35-0.795 0.588-1.28 0.684s-0.988 0.047-1.444-0.142c-0.457-0.189-0.847-0.51-1.122-0.921s-0.421-0.894-0.421-1.389c0-0.111 0.044-0.216 0.122-0.295s0.184-0.122 0.295-0.122 0.216 0.044 0.295 0.122c0.078 0.078 0.122 0.184 0.122 0.295 0 0.33 0.098 0.652 0.281 0.926s0.443 0.488 0.748 0.614 0.64 0.159 0.963 0.095c0.323-0.064 0.62-0.223 0.853-0.456s0.392-0.53 0.456-0.853c0.064-0.323 0.031-0.658-0.095-0.963s-0.34-0.565-0.614-0.748c-0.274-0.183-0.596-0.281-0.926-0.281h-8.368c-0.111 0-0.216-0.044-0.295-0.122s-0.122-0.184-0.122-0.295z"></path>
<path fill="#101828" style="fill: var(--color3, #101828)" d="M32.367 20h-1.242l2.792-7.758h1.352l2.792 7.758h-1.242l-2.193-6.348h-0.061l-2.197 6.348zM32.575 16.962h4.030v0.985h-4.030v-0.985zM45.259 14.765h-1.182c-0.045-0.253-0.13-0.475-0.254-0.667s-0.275-0.355-0.455-0.489c-0.179-0.134-0.38-0.235-0.602-0.303-0.22-0.068-0.453-0.102-0.701-0.102-0.447 0-0.847 0.112-1.201 0.337-0.351 0.225-0.629 0.554-0.833 0.989-0.202 0.434-0.303 0.965-0.303 1.591 0 0.631 0.101 1.164 0.303 1.598 0.205 0.434 0.484 0.763 0.837 0.985s0.751 0.333 1.193 0.333c0.245 0 0.477-0.033 0.697-0.098 0.222-0.068 0.423-0.168 0.602-0.299s0.331-0.292 0.455-0.481c0.126-0.192 0.213-0.412 0.261-0.659l1.182 0.004c-0.063 0.381-0.186 0.732-0.367 1.053-0.179 0.318-0.41 0.593-0.693 0.826-0.28 0.23-0.601 0.408-0.962 0.534s-0.755 0.189-1.182 0.189c-0.672 0-1.27-0.159-1.795-0.477-0.525-0.321-0.939-0.779-1.242-1.375-0.301-0.596-0.451-1.307-0.451-2.133 0-0.828 0.152-1.539 0.455-2.133 0.303-0.596 0.717-1.053 1.242-1.371 0.525-0.321 1.122-0.481 1.792-0.481 0.412 0 0.795 0.059 1.151 0.178 0.359 0.116 0.681 0.288 0.966 0.515 0.285 0.225 0.521 0.5 0.708 0.826 0.187 0.323 0.313 0.693 0.379 1.11z"></path>
</symbol>
</defs>
</svg>
